<?xml version="1.0" encoding="utf-8"?>
<!-- Generator: Adobe Illustrator 25.2.3, SVG Export Plug-In . SVG Version: 6.00 Build 0)  -->
<svg width="73" height="79" version="1.1" id="Layer_1" xmlns="http://www.w3.org/2000/svg" xmlns:xlink="http://www.w3.org/1999/xlink" x="73px" y="79px"
	 viewBox="0 0 73 79" style="enable-background:new 0 0 73 79;" xml:space="preserve">
<style type="text/css">
	.st0{clip-path:url(#SVGID_2_);enable-background:new    ;}
	.st1{clip-path:url(#SVGID_4_);}
	.st2{clip-path:url(#SVGID_6_);}
	.st3{clip-path:url(#SVGID_8_);fill:#126353;}
</style>
<g id="Page-1">
	<g id="Technoloy-Copy-2" transform="translate(-292.000000, -2723.000000)">
		<g>
			<defs>
				<rect id="SVGID_1_" x="292" y="2723" width="73" height="79"/>
			</defs>
			<clipPath id="SVGID_2_">
				<use xlink:href="#SVGID_1_"  style="overflow:visible;"/>
			</clipPath>
			<g class="st0">
				<g>
					<defs>
						<rect id="SVGID_3_" x="291" y="2722" width="74" height="80"/>
					</defs>
					<clipPath id="SVGID_4_">
						<use xlink:href="#SVGID_3_"  style="overflow:visible;"/>
					</clipPath>
					<g class="st1">
						<defs>
							<path id="SVGID_5_" d="M362.3,2753.9h-6.1c-0.8-2.6-1.8-5-3-7.2l4.4-4.3c1.1-1.1,1.1-2.7,0-3.8l-8.3-8.2
								c-1.1-1.1-2.8-1.1-3.9,0l-4.4,4.3c-2.3-1.2-4.7-2.2-7.3-3v-6c0-1.5-1.2-2.7-2.7-2.7h-11.7c-1.5,0-2.7,1.2-2.7,2.7v6.1
								c-2.6,0.7-5,1.7-7.3,3l-4.4-4.3c-1.1-1.1-2.8-1.1-3.9,0l-8.3,8.2c-1.1,1.1-1.1,2.7,0,3.8l4.4,4.3c-1.3,2.2-2.3,4.7-3,7.2
								c-0.2,0.9-0.3,1.8-0.4,2.7h24.3v-6.2c0-2,2.3-3.1,3.9-2l17,12c1.3,1,1.3,3,0,4l-17,12c-1.6,1.2-3.9,0-3.9-2v-6.2h-24.3
								c0.2,0.9,0.3,1.8,0.4,2.7v0.1c0.8,2.6,1.8,5,3,7.2l-4.4,4.3c-1.1,1.1-1.1,2.7,0,3.8l8.3,8.2c1.1,1.1,2.8,1.1,3.9,0l4.4-4.3
								c2.3,1.2,4.7,2.2,7.3,3v6.1c0,1.5,1.2,2.7,2.7,2.7H331c1.5,0,2.7-1.2,2.7-2.7v-6.1c2.6-0.7,5-1.7,7.3-3l4.4,4.3
								c1.1,1.1,2.8,1.1,3.9,0l8.3-8.2c1.1-1.1,1.1-2.7,0-3.8l-4.4-4.3c1.3-2.2,2.3-4.7,3-7.2h6.1c1.5,0,2.7-1.2,2.7-2.7v-11.6
								C365,2755.1,363.8,2753.9,362.3,2753.9"/>
						</defs>
						<clipPath id="SVGID_6_">
							<use xlink:href="#SVGID_5_"  style="overflow:visible;"/>
						</clipPath>
						<g class="st2">
							<defs>
								<rect id="SVGID_7_" x="292" y="2723" width="73" height="79"/>
							</defs>
							<clipPath id="SVGID_8_">
								<use xlink:href="#SVGID_7_"  style="overflow:visible;"/>
							</clipPath>
							<rect x="287" y="2718" class="st3" width="83" height="89"/>
						</g>
					</g>
				</g>
			</g>
		</g>
	</g>
</g>
</svg>
