<svg xmlns="http://www.w3.org/2000/svg" xmlns:xlink="http://www.w3.org/1999/xlink" width="82" height="65" viewBox="0 0 82 65">
    <defs>
        <path id="8oq9bdc9fa" d="M0.5 0L80.5 0 80.5 65 0.5 65z"/>
    </defs>
    <g fill="none" fill-rule="evenodd">
        <g>
            <g>
                <g transform="translate(-679 -2508) translate(-1 2250) translate(680.5 258)">
                    <mask id="fb2qmqfgjb" fill="#fff">
                        <use xlink:href="#8oq9bdc9fa"/>
                    </mask>
                    <path fill="#126353" d="M2.21 41h10.58c.943 0 1.71.761 1.71 1.694v20.612c0 .933-.767 1.694-1.71 1.694H2.21C1.269 65 .5 64.239.5 63.306V42.694C.5 41.76 1.269 41 2.21 41M49 22c7.455 0 13.5 6.03 13.5 13.469 0 2.79-.85 5.38-2.305 7.531-.173-.423-.406-.825-.695-1.2-1.437-1.851-3.488-2.425-5.673-2.154.048-.268.075-.549.075-.842 0-2.937-2.32-3.758-4.32-4.487-1.52-.553-2.856-1.053-2.856-2.384 0-2.68 4.046-2.521 4.715-.31.056.18.214.299.405.299h1.546c.13 0 .24-.052.323-.15.082-.1.115-.216.093-.343-.275-1.597-1.134-2.735-2.27-3.365-.352-.196-.726-.34-1.114-.44-.096-.023-.16-.105-.16-.203v-1.678c0-.23-.187-.42-.422-.42h-1.687c-.23 0-.42.19-.42.42v1.753c0 .095-.06.175-.151.202-1.898.56-3.487 2.126-3.487 4.437 0 2.791 2.096 3.67 4.022 4.377 1.638.601 3.152 1.076 3.152 2.493 0 .52-.152.932-.401 1.244l-2.721.59c-.73-.243-1.361-.76-1.592-1.523-.055-.18-.215-.3-.404-.3h-1.547c-.129 0-.24.052-.323.15-.081.098-.114.216-.093.343.135.785.41 1.458.792 2.015l-4.389.95c-1.495-.953-2.925-1.793-4.324-2.513-.497-1.405-.769-2.917-.769-4.492C35.5 28.029 41.544 22 49 22" mask="url(#fb2qmqfgjb)"/>
                    <path fill="#000" d="M24.5 17.036c0-1.71 1.134-2.866 2.489-3.28.065-.02.108-.079.108-.149v-1.296c0-.171.135-.311.3-.311h1.205c.166 0 .301.14.301.31v1.24c0 .073.047.134.115.151.276.074.544.18.793.325.813.466 1.426 1.307 1.623 2.488.016.094-.008.18-.067.253-.06.073-.138.111-.23.111h-1.105c-.135 0-.25-.089-.288-.222-.478-1.633-3.366-1.75-3.366.23 0 .984.953 1.354 2.037 1.763 1.43.538 3.085 1.146 3.085 3.317 0 1.707-1.134 2.866-2.489 3.28-.065.018-.108.078-.108.148v1.295c0 .171-.135.311-.3.311h-1.205c-.166 0-.301-.14-.301-.31v-1.24c0-.073-.046-.134-.113-.151-.278-.071-.546-.18-.795-.324-.813-.467-1.426-1.308-1.623-2.488-.014-.094.008-.181.067-.254.06-.072.138-.11.23-.11h1.105c.135 0 .25.088.288.22.478 1.635 3.367 1.753 3.367-.229 0-1.048-1.082-1.4-2.251-1.843-1.376-.522-2.872-1.173-2.872-3.235" mask="url(#fb2qmqfgjb)"/>
                    <path fill="#329E6E" d="M27.5 9c5.523 0 10 4.478 10 10 0 5.523-4.477 10-10 10-5.522 0-10-4.477-10-10 0-5.522 4.478-10 10-10" mask="url(#fb2qmqfgjb)"/>
                    <path fill="#000" d="M49.5 6.028c0-1.367.973-2.292 2.133-2.624.056-.016.093-.063.093-.118V2.249c0-.137.117-.249.258-.249h1.032c.143 0 .258.112.258.25v.99c0 .059.04.107.097.12.238.06.467.145.682.26.696.374 1.22 1.046 1.39 1.99.014.076-.006.146-.057.204-.052.058-.119.088-.198.088h-.946c-.116 0-.214-.071-.246-.176-.41-1.308-2.887-1.403-2.887.183 0 .787.817 1.083 1.747 1.41 1.224.43 2.644.916 2.644 2.652 0 1.367-.973 2.293-2.133 2.624-.056.016-.093.064-.093.12v1.036c0 .136-.115.249-.258.249h-1.032c-.141 0-.258-.113-.258-.25v-.99c0-.059-.04-.108-.097-.122-.238-.057-.467-.143-.681-.258-.697-.374-1.222-1.047-1.39-1.992-.014-.074.005-.144.056-.202.052-.058.121-.088.197-.088h.947c.116 0 .214.07.248.176.409 1.308 2.885 1.403 2.885-.183 0-.838-.927-1.12-1.929-1.475-1.18-.418-2.462-.938-2.462-2.588" mask="url(#fb2qmqfgjb)"/>
                    <path fill="#A8D3C0" d="M52 0c4.143 0 7.5 3.582 7.5 8s-3.357 8-7.5 8c-4.142 0-7.5-3.582-7.5-8s3.358-8 7.5-8" mask="url(#fb2qmqfgjb)"/>
                    <path fill="#126353" d="M40.123 46.026l13.27-2.911c2.048-.45 3.208.144 3.938 1.095.47.615.628 1.336.46 2.094-.169.757-.618 1.342-1.304 1.692l-14.268 7.301c-1.295.844-.404 2.233.633 1.759l16.336-8.294c.687-.348 1.175-.852 1.506-1.552.36-.76.896-1.389 1.622-1.902l13.238-9.37c3.368-2.382 4.16.31 4.946 2.133L64.323 54.619l-17.26 8.977c-2.282 1.187-4.546 1.607-7.099 1.314l-21.987-2.52c-.846-.095-1.477-.81-1.477-1.67V43.015c0-.771.494-1.423 1.231-1.624 8.917-2.427 14.33-.72 22.392 4.636" mask="url(#fb2qmqfgjb)"/>
                </g>
            </g>
        </g>
    </g>
</svg>
