<svg xmlns="http://www.w3.org/2000/svg" width="118" height="81" viewBox="0 0 118 81">
    <g fill="none" fill-rule="evenodd">
        <g>
            <g>
                <g>
                    <path fill="#329E6E" d="M78.143 77.719L117.056 77.719 117.056 39.083 78.143 39.083zM21.395 39.982L60.308 39.982 60.308 21.106 21.395 21.106zM1.578 77.735L20.494 77.735 20.494 58.858 1.578 58.858zM97.059 21.106L115.975 21.106 115.975 2.229 97.059 2.229z" opacity=".4" transform="translate(-270 -2952) translate(-1 2250) translate(271 703)"/>
                    <path fill="#126353" d="M99.83 67.971c.486.493.777 1.028 1.13 1.587" transform="translate(-270 -2952) translate(-1 2250) translate(271 703)"/>
                    <path stroke="#003132" stroke-width="1.712" d="M.274 1.622L40.364 1.622M1.045 39.32L1.045 2.391M39.593 39.32L39.593 2.391M.274 40.089L40.364 40.089M.274 21.213L40.364 21.213M.274 58.966L40.364 58.966M77.37 40.089L117.459 40.089M77.37 58.966L117.459 58.966M77.37 21.213L117.459 21.213M78.141 77.787L78.141 40.858M97.057 77.787L97.057 40.858M59.225 77.787L59.225 40.858M20.492 77.787L20.492 40.858M116.688 77.787L116.688 40.858M77.37 78.556L117.459 78.556M40.364 1.622L78.141 1.622M78.141 1.622L117.459 1.622M78.141 39.32L78.141 2.391M97.057 39.32L97.057 2.391M59.225 39.32L59.225 2.391M20.492 39.32L20.492 2.391M116.688 39.32L116.688 2.391M1.045 77.787L1.045 40.858M38.822 40.089L78.911 40.089M38.822 21.213L78.911 21.213M38.822 58.966L78.911 58.966M39.593 77.787L39.593 40.858M.274 78.556L39.592 78.556M39.593 78.556L77.37 78.556" transform="translate(-270 -2952) translate(-1 2250) translate(271 703)"/>
                    <path fill="#126353" d="M10.81 16.18c.387.28.619.582.9.899m.019 0l-.03-.173c.811-.756 1.515-1.814 2.014-2.784.256-.497.499-1.029.638-1.572.075-.293.12-.639-.1-.881-.213-.239-.573-.228-.832-.067-.374.232-.484.71-.607 1.1-.392 1.243-.868 2.501-1.187 3.772-.093-.514-.197-1.025-.316-1.533l-.05-.222c.538-1.309.95-2.691 1.073-4.106.063-.733.052-1.472-.053-2.201-.058-.41-.114-1.335-.485-1.604-.912-.664-.777 2.138-.778 2.385-.012 1.572.084 3.135.358 4.683-.044.15-.089.3-.135.448-.032-1.631-.16-3.283-.636-4.846-.241-.79-.575-1.56-1.031-2.25-.184-.279-.584-1.069-1.011-.917-.454.163-.192 1.058-.132 1.38.147.789.367 1.562.692 2.296.325.734.696 1.444 1.054 2.162.179.359.332.724.476 1.09.096.552.273 1.097.414 1.642-.002.015.002.03.011.04.023.09.045.18.065.271.041.182.08.365.119.547-.44-1.049-1.04-2.022-1.686-2.966-.335-.489-.666-1.069-1.148-1.43-.248-.185-.831-.55-1.112-.232-.263.298.021.784.155 1.07.284.614.602 1.217 1.018 1.752.41.526.905.87 1.44 1.254M29.725 16.18c.388.28.62.582.901.899m.019 0l-.03-.173c.811-.756 1.515-1.814 2.014-2.784.256-.497.499-1.029.638-1.572.075-.293.12-.639-.1-.881-.213-.239-.573-.228-.832-.067-.374.232-.484.71-.607 1.1-.392 1.243-.868 2.501-1.187 3.772-.093-.514-.197-1.025-.316-1.533l-.05-.222c.538-1.309.95-2.691 1.073-4.106.063-.733.052-1.472-.053-2.201-.058-.41-.114-1.335-.485-1.604-.912-.664-.777 2.138-.778 2.385-.012 1.572.084 3.135.358 4.683-.044.15-.089.3-.135.448-.032-1.631-.16-3.283-.636-4.846-.241-.79-.575-1.56-1.031-2.25-.184-.279-.584-1.069-1.011-.917-.454.163-.192 1.058-.132 1.38.147.789.367 1.562.692 2.296.325.734.696 1.444 1.054 2.162.179.359.332.724.477 1.09.095.552.272 1.097.413 1.642-.002.015.002.03.011.04.023.09.045.18.065.271.041.182.08.365.119.547-.44-1.049-1.04-2.022-1.686-2.966-.335-.489-.666-1.069-1.148-1.43-.248-.185-.831-.55-1.112-.232-.263.298.021.784.155 1.07.284.614.602 1.217 1.018 1.752.41.526.906.87 1.44 1.254M49.542 35.056c.388.28.62.582.9.9m.02 0l-.03-.174c.81-.755 1.514-1.814 2.014-2.783.256-.497.499-1.03.638-1.572.074-.294.12-.64-.1-.882-.214-.238-.573-.227-.832-.066-.374.231-.484.71-.607 1.1-.392 1.243-.869 2.5-1.187 3.771-.093-.513-.198-1.025-.316-1.533l-.05-.221c.538-1.31.95-2.692 1.072-4.106.064-.733.053-1.473-.052-2.202-.058-.409-.114-1.335-.485-1.604-.912-.663-.777 2.138-.779 2.386-.012 1.571.085 3.135.36 4.682-.045.15-.09.3-.136.448-.032-1.63-.16-3.283-.637-4.846-.24-.79-.574-1.56-1.03-2.25-.184-.279-.584-1.068-1.011-.916-.454.162-.192 1.057-.132 1.379.147.79.367 1.563.691 2.297.326.733.697 1.444 1.055 2.162.178.358.332.723.476 1.09.096.552.273 1.096.414 1.641-.002.016.002.03.01.04.024.091.046.181.066.272.041.182.08.365.118.547-.438-1.05-1.04-2.023-1.685-2.966-.335-.49-.666-1.07-1.149-1.43-.248-.185-.83-.55-1.11-.233-.265.298.02.784.154 1.07.283.614.602 1.218 1.018 1.752.41.526.905.871 1.44 1.254M49.542 54.831c.388.28.62.583.9.9m.02 0l-.03-.173c.81-.756 1.514-1.815 2.014-2.784.256-.497.499-1.029.638-1.572.074-.293.12-.64-.1-.882-.214-.238-.573-.227-.832-.066-.374.231-.484.71-.607 1.1-.392 1.243-.869 2.501-1.187 3.771-.093-.513-.198-1.024-.316-1.533l-.05-.221c.538-1.309.95-2.692 1.072-4.106.064-.733.053-1.472-.052-2.201-.058-.41-.114-1.335-.485-1.605-.912-.663-.777 2.139-.779 2.386-.012 1.572.085 3.135.36 4.682-.045.15-.09.3-.136.448-.032-1.63-.16-3.283-.637-4.846-.24-.79-.574-1.56-1.03-2.25-.184-.278-.584-1.068-1.011-.916-.454.162-.192 1.058-.132 1.38.147.788.367 1.562.691 2.296.326.734.697 1.444 1.055 2.162.178.358.332.723.476 1.09.096.552.273 1.097.414 1.641-.002.016.002.03.01.041.024.09.046.18.066.271.041.182.08.365.118.547-.438-1.05-1.04-2.022-1.685-2.966-.335-.489-.666-1.07-1.149-1.43-.248-.185-.83-.55-1.11-.232-.265.297.02.783.154 1.07.283.614.602 1.217 1.018 1.751.41.527.905.871 1.44 1.254M49.542 16.18c.388.28.62.582.9.899m.02 0l-.03-.173c.81-.756 1.514-1.814 2.014-2.784.256-.497.499-1.029.638-1.572.074-.293.12-.639-.1-.881-.214-.239-.573-.228-.832-.067-.374.232-.484.71-.607 1.1-.392 1.243-.869 2.501-1.187 3.772-.093-.514-.198-1.025-.316-1.533l-.05-.222c.538-1.309.95-2.691 1.072-4.106.064-.733.053-1.472-.052-2.201-.058-.41-.114-1.335-.485-1.604-.912-.664-.777 2.138-.779 2.385-.012 1.572.085 3.135.36 4.683-.045.15-.09.3-.136.448-.032-1.631-.16-3.283-.637-4.846-.24-.79-.574-1.56-1.03-2.25-.184-.279-.584-1.069-1.011-.917-.454.163-.192 1.058-.132 1.38.147.789.367 1.562.691 2.296.326.734.697 1.444 1.055 2.162.178.359.332.724.476 1.09.096.552.273 1.097.414 1.642-.002.015.002.03.01.04.024.09.046.18.066.271.041.182.08.365.118.547-.438-1.049-1.04-2.022-1.685-2.966-.335-.489-.666-1.069-1.149-1.43-.248-.185-.83-.55-1.11-.232-.265.298.02.784.154 1.07.283.614.602 1.217 1.018 1.752.41.526.905.87 1.44 1.254M30.626 35.056c.388.28.62.582.9.9m.02 0l-.03-.174c.81-.755 1.514-1.814 2.014-2.783.256-.497.499-1.03.638-1.572.074-.294.119-.64-.1-.882-.214-.238-.573-.227-.832-.066-.374.231-.484.71-.608 1.1-.391 1.243-.868 2.5-1.186 3.771-.093-.513-.198-1.025-.316-1.533l-.05-.221c.538-1.31.95-2.692 1.072-4.106.064-.733.053-1.473-.052-2.202-.058-.409-.114-1.335-.485-1.604-.912-.663-.777 2.138-.779 2.386-.012 1.571.085 3.135.36 4.682-.045.15-.09.3-.136.448-.032-1.63-.16-3.283-.637-4.846-.24-.79-.574-1.56-1.03-2.25-.184-.279-.585-1.068-1.011-.916-.454.162-.192 1.057-.132 1.379.146.79.367 1.563.691 2.297.326.733.697 1.444 1.055 2.162.178.358.332.723.476 1.09.096.552.273 1.096.414 1.641-.002.016.002.03.01.04.024.091.046.181.066.272.041.182.08.365.118.547-.438-1.05-1.04-2.023-1.685-2.966-.335-.49-.666-1.07-1.149-1.43-.248-.185-.83-.55-1.11-.233-.265.298.02.784.154 1.07.283.614.602 1.218 1.018 1.752.41.526.905.871 1.44 1.254M30.626 73.708c.388.28.62.582.9.899m.02 0l-.03-.173c.81-.755 1.514-1.814 2.014-2.784.256-.497.499-1.029.638-1.572.074-.293.119-.639-.1-.881-.214-.239-.573-.227-.832-.067-.374.232-.484.711-.608 1.1-.391 1.243-.868 2.502-1.186 3.772-.093-.514-.198-1.025-.316-1.533l-.05-.222c.538-1.308.95-2.691 1.072-4.106.064-.732.053-1.472-.052-2.201-.058-.41-.114-1.335-.485-1.604-.912-.663-.777 2.138-.779 2.385-.012 1.572.085 3.135.36 4.683-.045.15-.09.3-.136.448-.032-1.63-.16-3.283-.637-4.846-.24-.79-.574-1.56-1.03-2.25-.184-.279-.585-1.069-1.011-.917-.454.163-.192 1.058-.132 1.38.146.789.367 1.563.691 2.296.326.734.697 1.444 1.055 2.162.178.359.332.724.476 1.09.096.552.273 1.097.414 1.642-.002.016.002.03.01.04.024.091.046.181.066.271.041.182.08.365.118.548-.438-1.05-1.04-2.023-1.685-2.967-.335-.488-.666-1.069-1.149-1.43-.248-.184-.83-.55-1.11-.232-.265.298.02.784.154 1.07.283.614.602 1.218 1.018 1.752.41.526.905.87 1.44 1.254M49.542 73.708c.388.28.62.582.9.899m.02 0l-.03-.173c.81-.755 1.514-1.814 2.014-2.784.256-.497.499-1.029.638-1.572.074-.293.12-.639-.1-.881-.214-.239-.573-.227-.832-.067-.374.232-.484.711-.607 1.1-.392 1.243-.869 2.502-1.187 3.772-.093-.514-.198-1.025-.316-1.533l-.05-.222c.538-1.308.95-2.691 1.072-4.106.064-.732.053-1.472-.052-2.201-.058-.41-.114-1.335-.485-1.604-.912-.663-.777 2.138-.779 2.385-.012 1.572.085 3.135.36 4.683-.045.15-.09.3-.136.448-.032-1.63-.16-3.283-.637-4.846-.24-.79-.574-1.56-1.03-2.25-.184-.279-.584-1.069-1.011-.917-.454.163-.192 1.058-.132 1.38.147.789.367 1.563.691 2.296.326.734.697 1.444 1.055 2.162.178.359.332.724.476 1.09.096.552.273 1.097.414 1.642-.002.016.002.03.01.04.024.091.046.181.066.271.041.182.08.365.118.548-.438-1.05-1.04-2.023-1.685-2.967-.335-.488-.666-1.069-1.149-1.43-.248-.184-.83-.55-1.11-.232-.265.298.02.784.154 1.07.283.614.602 1.218 1.018 1.752.41.526.905.87 1.44 1.254M68.458 73.708c.388.28.62.582.9.899m.02 0l-.03-.173c.81-.755 1.514-1.814 2.014-2.784.256-.497.499-1.029.638-1.572.074-.293.12-.639-.1-.881-.214-.239-.573-.227-.832-.067-.374.232-.484.711-.607 1.1-.392 1.243-.869 2.502-1.187 3.772-.093-.514-.198-1.025-.316-1.533l-.05-.222c.538-1.308.95-2.691 1.072-4.106.064-.732.053-1.472-.052-2.201-.058-.41-.114-1.335-.485-1.604-.912-.663-.777 2.138-.779 2.385-.012 1.572.085 3.135.36 4.683-.045.15-.09.3-.136.448-.032-1.63-.16-3.283-.637-4.846-.24-.79-.574-1.56-1.03-2.25-.184-.279-.584-1.069-1.011-.917-.454.163-.192 1.058-.132 1.38.147.789.367 1.563.691 2.296.326.734.697 1.444 1.055 2.162.179.359.332.724.476 1.09.096.552.273 1.097.414 1.642-.002.016.002.03.01.04.024.091.046.181.066.271.041.182.08.365.119.548-.44-1.05-1.04-2.023-1.686-2.967-.335-.488-.666-1.069-1.149-1.43-.248-.184-.83-.55-1.11-.232-.265.298.02.784.154 1.07.284.614.602 1.218 1.018 1.752.41.526.905.87 1.44 1.254M68.458 54.831c.388.28.62.583.9.9m.02 0l-.03-.173c.81-.756 1.514-1.815 2.014-2.784.256-.497.499-1.029.638-1.572.074-.293.12-.64-.1-.882-.214-.238-.573-.227-.832-.066-.374.231-.484.71-.607 1.1-.392 1.243-.869 2.501-1.187 3.771-.093-.513-.198-1.024-.316-1.533l-.05-.221c.538-1.309.95-2.692 1.072-4.106.064-.733.053-1.472-.052-2.201-.058-.41-.114-1.335-.485-1.605-.912-.663-.777 2.139-.779 2.386-.012 1.572.085 3.135.36 4.682-.045.15-.09.3-.136.448-.032-1.63-.16-3.283-.637-4.846-.24-.79-.574-1.56-1.03-2.25-.184-.278-.584-1.068-1.011-.916-.454.162-.192 1.058-.132 1.38.147.788.367 1.562.691 2.296.326.734.697 1.444 1.055 2.162.179.358.332.723.476 1.09.096.552.273 1.097.414 1.641-.002.016.002.03.01.041.024.09.046.18.066.271.041.182.08.365.119.547-.44-1.05-1.04-2.022-1.686-2.966-.335-.489-.666-1.07-1.149-1.43-.248-.185-.83-.55-1.11-.232-.265.297.02.783.154 1.07.284.614.602 1.217 1.018 1.751.41.527.905.871 1.44 1.254M68.458 35.056c.388.28.62.582.9.9m.02 0l-.03-.174c.81-.755 1.514-1.814 2.014-2.783.256-.497.499-1.03.638-1.572.074-.294.12-.64-.1-.882-.214-.238-.573-.227-.832-.066-.374.231-.484.71-.607 1.1-.392 1.243-.869 2.5-1.187 3.771-.093-.513-.198-1.025-.316-1.533l-.05-.221c.538-1.31.95-2.692 1.072-4.106.064-.733.053-1.473-.052-2.202-.058-.409-.114-1.335-.485-1.604-.912-.663-.777 2.138-.779 2.386-.012 1.571.085 3.135.36 4.682-.045.15-.09.3-.136.448-.032-1.63-.16-3.283-.637-4.846-.24-.79-.574-1.56-1.03-2.25-.184-.279-.584-1.068-1.011-.916-.454.162-.192 1.057-.132 1.379.147.79.367 1.563.691 2.297.326.733.697 1.444 1.055 2.162.179.358.332.723.476 1.09.096.552.273 1.096.414 1.641-.002.016.002.03.01.04.024.091.046.181.066.272.041.182.08.365.119.547-.44-1.05-1.04-2.023-1.686-2.966-.335-.49-.666-1.07-1.149-1.43-.248-.185-.83-.55-1.11-.233-.265.298.02.784.154 1.07.284.614.602 1.218 1.018 1.752.41.526.905.871 1.44 1.254M68.458 16.18c.388.28.62.582.9.899m.02 0l-.03-.173c.81-.756 1.514-1.814 2.014-2.784.256-.497.499-1.029.638-1.572.074-.293.12-.639-.1-.881-.214-.239-.573-.228-.832-.067-.374.232-.484.71-.607 1.1-.392 1.243-.869 2.501-1.187 3.772-.093-.514-.198-1.025-.316-1.533l-.05-.222c.538-1.309.95-2.691 1.072-4.106.064-.733.053-1.472-.052-2.201-.058-.41-.114-1.335-.485-1.604-.912-.664-.777 2.138-.779 2.385-.012 1.572.085 3.135.36 4.683-.045.15-.09.3-.136.448-.032-1.631-.16-3.283-.637-4.846-.24-.79-.574-1.56-1.03-2.25-.184-.279-.584-1.069-1.011-.917-.454.163-.192 1.058-.132 1.38.147.789.367 1.562.691 2.296.326.734.697 1.444 1.055 2.162.179.359.332.724.476 1.09.096.552.273 1.097.414 1.642-.002.015.002.03.01.04.024.09.046.18.066.271.041.182.08.365.119.547-.44-1.049-1.04-2.022-1.686-2.966-.335-.489-.666-1.069-1.149-1.43-.248-.185-.83-.55-1.11-.232-.265.298.02.784.154 1.07.284.614.602 1.217 1.018 1.752.41.526.905.87 1.44 1.254M87.374 73.708c.388.28.62.582.9.899m.02 0l-.03-.173c.81-.755 1.515-1.814 2.014-2.784.256-.497.499-1.029.638-1.572.075-.293.12-.639-.1-.881-.214-.239-.573-.227-.832-.067-.374.232-.484.711-.607 1.1-.392 1.243-.869 2.502-1.187 3.772-.093-.514-.198-1.025-.316-1.533l-.05-.222c.538-1.308.95-2.691 1.072-4.106.064-.732.053-1.472-.052-2.201-.058-.41-.114-1.335-.485-1.604-.912-.663-.777 2.138-.779 2.385-.012 1.572.085 3.135.36 4.683-.045.15-.09.3-.136.448-.032-1.63-.16-3.283-.637-4.846-.24-.79-.574-1.56-1.03-2.25-.184-.279-.584-1.069-1.011-.917-.454.163-.192 1.058-.132 1.38.147.789.367 1.563.691 2.296.326.734.697 1.444 1.055 2.162.179.359.332.724.476 1.09.096.552.273 1.097.414 1.642-.002.016.002.03.01.04.024.091.046.181.066.271.041.182.08.365.119.548-.44-1.05-1.04-2.023-1.686-2.967-.335-.488-.666-1.069-1.149-1.43-.248-.184-.83-.55-1.11-.232-.265.298.02.784.154 1.07.284.614.602 1.218 1.018 1.752.41.526.905.87 1.44 1.254M87.374 54.831c.388.28.62.583.9.9m.02 0l-.03-.173c.81-.756 1.515-1.815 2.014-2.784.256-.497.499-1.029.638-1.572.075-.293.12-.64-.1-.882-.214-.238-.573-.227-.832-.066-.374.231-.484.71-.607 1.1-.392 1.243-.869 2.501-1.187 3.771-.093-.513-.198-1.024-.316-1.533l-.05-.221c.538-1.309.95-2.692 1.072-4.106.064-.733.053-1.472-.052-2.201-.058-.41-.114-1.335-.485-1.605-.912-.663-.777 2.139-.779 2.386-.012 1.572.085 3.135.36 4.682-.045.15-.09.3-.136.448-.032-1.63-.16-3.283-.637-4.846-.24-.79-.574-1.56-1.03-2.25-.184-.278-.584-1.068-1.011-.916-.454.162-.192 1.058-.132 1.38.147.788.367 1.562.691 2.296.326.734.697 1.444 1.055 2.162.179.358.332.723.476 1.09.096.552.273 1.097.414 1.641-.002.016.002.03.01.041.024.09.046.18.066.271.041.182.08.365.119.547-.44-1.05-1.04-2.022-1.686-2.966-.335-.489-.666-1.07-1.149-1.43-.248-.185-.83-.55-1.11-.232-.265.297.02.783.154 1.07.284.614.602 1.217 1.018 1.751.41.527.905.871 1.44 1.254M87.374 35.056c.388.28.62.582.9.9m.02 0l-.03-.174c.81-.755 1.515-1.814 2.014-2.783.256-.497.499-1.03.638-1.572.075-.294.12-.64-.1-.882-.214-.238-.573-.227-.832-.066-.374.231-.484.71-.607 1.1-.392 1.243-.869 2.5-1.187 3.771-.093-.513-.198-1.025-.316-1.533l-.05-.221c.538-1.31.95-2.692 1.072-4.106.064-.733.053-1.473-.052-2.202-.058-.409-.114-1.335-.485-1.604-.912-.663-.777 2.138-.779 2.386-.012 1.571.085 3.135.36 4.682-.045.15-.09.3-.136.448-.032-1.63-.16-3.283-.637-4.846-.24-.79-.574-1.56-1.03-2.25-.184-.279-.584-1.068-1.011-.916-.454.162-.192 1.057-.132 1.379.147.79.367 1.563.691 2.297.326.733.697 1.444 1.055 2.162.179.358.332.723.476 1.09.096.552.273 1.096.414 1.641-.002.016.002.03.01.04.024.091.046.181.066.272.041.182.08.365.119.547-.44-1.05-1.04-2.023-1.686-2.966-.335-.49-.666-1.07-1.149-1.43-.248-.185-.83-.55-1.11-.233-.265.298.02.784.154 1.07.284.614.602 1.218 1.018 1.752.41.526.905.871 1.44 1.254M87.374 16.18c.388.28.62.582.9.899m.02 0l-.03-.173c.81-.756 1.515-1.814 2.014-2.784.256-.497.499-1.029.638-1.572.075-.293.12-.639-.1-.881-.214-.239-.573-.228-.832-.067-.374.232-.484.71-.607 1.1-.392 1.243-.869 2.501-1.187 3.772-.093-.514-.198-1.025-.316-1.533l-.05-.222c.538-1.309.95-2.691 1.072-4.106.064-.733.053-1.472-.052-2.201-.058-.41-.114-1.335-.485-1.604-.912-.664-.777 2.138-.779 2.385-.012 1.572.085 3.135.36 4.683-.045.15-.09.3-.136.448-.032-1.631-.16-3.283-.637-4.846-.24-.79-.574-1.56-1.03-2.25-.184-.279-.584-1.069-1.011-.917-.454.163-.192 1.058-.132 1.38.147.789.367 1.562.691 2.296.326.734.697 1.444 1.055 2.162.179.359.332.724.476 1.09.096.552.273 1.097.414 1.642-.002.015.002.03.01.04.024.09.046.18.066.271.041.182.08.365.119.547-.44-1.049-1.04-2.022-1.686-2.966-.335-.489-.666-1.069-1.149-1.43-.248-.185-.83-.55-1.11-.232-.265.298.02.784.154 1.07.284.614.602 1.217 1.018 1.752.41.526.905.87 1.44 1.254M106.29 73.708c.388.28.62.582.9.899m.02 0l-.03-.173c.81-.755 1.515-1.814 2.014-2.784.256-.497.499-1.029.638-1.572.075-.293.12-.639-.1-.881-.213-.239-.573-.227-.832-.067-.374.232-.484.711-.607 1.1-.392 1.243-.868 2.502-1.187 3.772-.093-.514-.198-1.025-.316-1.533l-.05-.222c.538-1.308.95-2.691 1.073-4.106.063-.732.052-1.472-.053-2.201-.058-.41-.114-1.335-.485-1.604-.912-.663-.777 2.138-.779 2.385-.012 1.572.085 3.135.36 4.683-.045.15-.09.3-.136.448-.032-1.63-.16-3.283-.637-4.846-.24-.79-.574-1.56-1.03-2.25-.184-.279-.584-1.069-1.011-.917-.454.163-.192 1.058-.132 1.38.147.789.367 1.563.691 2.296.326.734.697 1.444 1.055 2.162.179.359.332.724.476 1.09.096.552.273 1.097.414 1.642-.002.016.002.03.01.04.024.091.046.181.066.271.041.182.08.365.119.548-.44-1.05-1.04-2.023-1.686-2.967-.335-.488-.666-1.069-1.149-1.43-.247-.184-.83-.55-1.11-.232-.265.298.02.784.154 1.07.284.614.602 1.218 1.018 1.752.41.526.905.87 1.44 1.254M106.29 54.831c.388.28.62.583.9.9m.02 0l-.03-.173c.81-.756 1.515-1.815 2.014-2.784.256-.497.499-1.029.638-1.572.075-.293.12-.64-.1-.882-.213-.238-.573-.227-.832-.066-.374.231-.484.71-.607 1.1-.392 1.243-.868 2.501-1.187 3.771-.093-.513-.198-1.024-.316-1.533l-.05-.221c.538-1.309.95-2.692 1.073-4.106.063-.733.052-1.472-.053-2.201-.058-.41-.114-1.335-.485-1.605-.912-.663-.777 2.139-.779 2.386-.012 1.572.085 3.135.36 4.682-.045.15-.09.3-.136.448-.032-1.63-.16-3.283-.637-4.846-.24-.79-.574-1.56-1.03-2.25-.184-.278-.584-1.068-1.011-.916-.454.162-.192 1.058-.132 1.38.147.788.367 1.562.691 2.296.326.734.697 1.444 1.055 2.162.179.358.332.723.476 1.09.096.552.273 1.097.414 1.641-.002.016.002.03.01.041.024.09.046.18.066.271.041.182.08.365.119.547-.44-1.05-1.04-2.022-1.686-2.966-.335-.489-.666-1.07-1.149-1.43-.247-.185-.83-.55-1.11-.232-.265.297.02.783.154 1.07.284.614.602 1.217 1.018 1.751.41.527.905.871 1.44 1.254M106.29 35.056c.388.28.62.582.9.9m.02 0l-.03-.174c.81-.755 1.515-1.814 2.014-2.783.256-.497.499-1.03.638-1.572.075-.294.12-.64-.1-.882-.213-.238-.573-.227-.832-.066-.374.231-.484.71-.607 1.1-.392 1.243-.868 2.5-1.187 3.771-.093-.513-.198-1.025-.316-1.533l-.05-.221c.538-1.31.95-2.692 1.073-4.106.063-.733.052-1.473-.053-2.202-.058-.409-.114-1.335-.485-1.604-.912-.663-.777 2.138-.779 2.386-.012 1.571.085 3.135.36 4.682-.045.15-.09.3-.136.448-.032-1.63-.16-3.283-.637-4.846-.24-.79-.574-1.56-1.03-2.25-.184-.279-.584-1.068-1.011-.916-.454.162-.192 1.057-.132 1.379.147.79.367 1.563.691 2.297.326.733.697 1.444 1.055 2.162.179.358.332.723.476 1.09.096.552.273 1.096.414 1.641-.002.016.002.03.01.04.024.091.046.181.066.272.041.182.08.365.119.547-.44-1.05-1.04-2.023-1.686-2.966-.335-.49-.666-1.07-1.149-1.43-.247-.185-.83-.55-1.11-.233-.265.298.02.784.154 1.07.284.614.602 1.218 1.018 1.752.41.526.905.871 1.44 1.254M106.29 16.18c.388.28.62.582.9.899m.02 0l-.03-.173c.81-.756 1.515-1.814 2.014-2.784.256-.497.499-1.029.638-1.572.075-.293.12-.639-.1-.881-.213-.239-.573-.228-.832-.067-.374.232-.484.71-.607 1.1-.392 1.243-.868 2.501-1.187 3.772-.093-.514-.198-1.025-.316-1.533l-.05-.222c.538-1.309.95-2.691 1.073-4.106.063-.733.052-1.472-.053-2.201-.058-.41-.114-1.335-.485-1.604-.912-.664-.777 2.138-.779 2.385-.012 1.572.085 3.135.36 4.683-.045.15-.09.3-.136.448-.032-1.631-.16-3.283-.637-4.846-.24-.79-.574-1.56-1.03-2.25-.184-.279-.584-1.069-1.011-.917-.454.163-.192 1.058-.132 1.38.147.789.367 1.562.691 2.296.326.734.697 1.444 1.055 2.162.179.359.332.724.476 1.09.096.552.273 1.097.414 1.642-.002.015.002.03.01.04.024.09.046.18.066.271.041.182.08.365.119.547-.44-1.049-1.04-2.022-1.686-2.966-.335-.489-.666-1.069-1.149-1.43-.247-.185-.83-.55-1.11-.232-.265.298.02.784.154 1.07.284.614.602 1.217 1.018 1.752.41.526.905.87 1.44 1.254M30.626 54.831c.388.28.62.583.9.9m.02 0l-.03-.173c.81-.756 1.514-1.815 2.014-2.784.256-.497.499-1.029.638-1.572.074-.293.119-.64-.1-.882-.214-.238-.573-.227-.832-.066-.374.231-.484.71-.608 1.1-.391 1.243-.868 2.501-1.186 3.771-.093-.513-.198-1.024-.316-1.533l-.05-.221c.538-1.309.95-2.692 1.072-4.106.064-.733.053-1.472-.052-2.201-.058-.41-.114-1.335-.485-1.605-.912-.663-.777 2.139-.779 2.386-.012 1.572.085 3.135.36 4.682-.045.15-.09.3-.136.448-.032-1.63-.16-3.283-.637-4.846-.24-.79-.574-1.56-1.03-2.25-.184-.278-.585-1.068-1.011-.916-.454.162-.192 1.058-.132 1.38.146.788.367 1.562.691 2.296.326.734.697 1.444 1.055 2.162.178.358.332.723.476 1.09.096.552.273 1.097.414 1.641-.002.016.002.03.01.041.024.09.046.18.066.271.041.182.08.365.118.547-.438-1.05-1.04-2.022-1.685-2.966-.335-.489-.666-1.07-1.149-1.43-.248-.185-.83-.55-1.11-.232-.265.297.02.783.154 1.07.283.614.602 1.217 1.018 1.751.41.527.905.871 1.44 1.254M10.81 54.831c.387.28.619.583.9.9m.019 0l-.03-.173c.811-.756 1.515-1.815 2.014-2.784.256-.497.499-1.029.638-1.572.075-.293.12-.64-.1-.882-.213-.238-.573-.227-.832-.066-.374.231-.484.71-.607 1.1-.392 1.243-.868 2.501-1.187 3.771-.093-.513-.197-1.024-.316-1.533l-.05-.221c.538-1.309.95-2.692 1.073-4.106.063-.733.052-1.472-.053-2.201-.058-.41-.114-1.335-.485-1.605-.912-.663-.777 2.139-.778 2.386-.012 1.572.084 3.135.358 4.682-.044.15-.089.3-.135.448-.032-1.63-.16-3.283-.636-4.846-.241-.79-.575-1.56-1.031-2.25-.184-.278-.584-1.068-1.011-.916-.454.162-.192 1.058-.132 1.38.147.788.367 1.562.692 2.296.325.734.696 1.444 1.054 2.162.179.358.332.723.476 1.09.096.552.273 1.097.414 1.641-.002.016.002.03.011.041.023.09.045.18.065.271.041.182.08.365.119.547-.44-1.05-1.04-2.022-1.686-2.966-.335-.489-.666-1.07-1.148-1.43-.248-.185-.831-.55-1.112-.232-.263.297.021.783.155 1.07.284.614.602 1.217 1.018 1.751.41.527.905.871 1.44 1.254M10.81 35.056c.387.28.619.582.9.9m.019 0l-.03-.174c.811-.755 1.515-1.814 2.014-2.783.256-.497.499-1.03.638-1.572.075-.294.12-.64-.1-.882-.213-.238-.573-.227-.832-.066-.374.231-.484.71-.607 1.1-.392 1.243-.868 2.5-1.187 3.771-.093-.513-.197-1.025-.316-1.533l-.05-.221c.538-1.31.95-2.692 1.073-4.106.063-.733.052-1.473-.053-2.202-.058-.409-.114-1.335-.485-1.604-.912-.663-.777 2.138-.778 2.386-.012 1.571.084 3.135.358 4.682-.044.15-.089.3-.135.448-.032-1.63-.16-3.283-.636-4.846-.241-.79-.575-1.56-1.031-2.25-.184-.279-.584-1.068-1.011-.916-.454.162-.192 1.057-.132 1.379.147.79.367 1.563.692 2.297.325.733.696 1.444 1.054 2.162.179.358.332.723.476 1.09.096.552.273 1.096.414 1.641-.002.016.002.03.011.04.023.091.045.181.065.272.041.182.08.365.119.547-.44-1.05-1.04-2.023-1.686-2.966-.335-.49-.666-1.07-1.148-1.43-.248-.185-.831-.55-1.112-.233-.263.298.021.784.155 1.07.284.614.602 1.218 1.018 1.752.41.526.905.871 1.44 1.254M10.81 73.708c.387.28.619.582.9.899m.019 0l-.03-.173c.811-.755 1.515-1.814 2.014-2.784.256-.497.499-1.029.638-1.572.075-.293.12-.639-.1-.881-.213-.239-.573-.227-.832-.067-.374.232-.484.711-.607 1.1-.392 1.243-.868 2.502-1.187 3.772-.093-.514-.197-1.025-.316-1.533l-.05-.222c.538-1.308.95-2.691 1.073-4.106.063-.732.052-1.472-.053-2.201-.058-.41-.114-1.335-.485-1.604-.912-.663-.777 2.138-.778 2.385-.012 1.572.084 3.135.358 4.683-.044.15-.089.3-.135.448-.032-1.63-.16-3.283-.636-4.846-.241-.79-.575-1.56-1.031-2.25-.184-.279-.584-1.069-1.011-.917-.454.163-.192 1.058-.132 1.38.147.789.367 1.563.692 2.296.325.734.696 1.444 1.054 2.162.179.359.332.724.476 1.09.096.552.273 1.097.414 1.642-.002.016.002.03.011.04.023.091.045.181.065.271.041.182.08.365.119.548-.44-1.05-1.04-2.023-1.686-2.967-.335-.488-.666-1.069-1.148-1.43-.248-.184-.831-.55-1.112-.232-.263.298.021.784.155 1.07.284.614.602 1.218 1.018 1.752.41.526.905.87 1.44 1.254" transform="translate(-270 -2952) translate(-1 2250) translate(271 703)"/>
                </g>
            </g>
        </g>
    </g>
</svg>
