<svg xmlns="http://www.w3.org/2000/svg" width="84" height="89" viewBox="0 0 84 89">
    <g fill="none" fill-rule="evenodd">
        <g>
            <g>
                <path fill="#FEFEFE" d="M41.083 88.636c.04-3.391.08-5.578.12-8.97l.13-11.105.007-.614c3.063-.908 6.123-2.362 8.208-4.853 1.118-1.336 1.926-2.974 2.148-4.713.04-.317.073-.647.048-.967-.006-.072-.182-.095-.263-.068-3.221.45-6.577 1.586-8.68 4.204-.61.76-1.084 1.62-1.415 2.533.026-2.213.05-4.366.075-6.388 3.062-.908 6.119-2.364 8.204-4.854 1.118-1.336 1.925-2.974 2.147-4.714.04-.317.073-.647.048-.967-.006-.07-.18-.088-.262-.06-3.222.452-6.58 1.59-8.682 4.209-.607.756-1.08 1.61-1.41 2.518l.08-6.852c3.109-.91 6.23-2.381 8.33-4.924 1.103-1.335 1.897-2.96 2.11-4.688.039-.313.068-.638.043-.953-.004-.055-.133-.103-.218-.102h-.018l-.01.002h-.005c-3.24.45-6.62 1.593-8.716 4.245-.652.824-1.146 1.76-1.472 2.754.02-1.772.04-3.544.062-5.316l.016-1.3c3.016-.91 6.014-2.358 8.068-4.811 1.118-1.337 1.926-2.975 2.148-4.714.04-.317.072-.647.047-.967-.006-.07-.18-.09-.262-.063-3.222.45-6.578 1.589-8.681 4.207-.526.656-.952 1.385-1.271 2.159l.01-.885c.012-1.001.057-2.01.036-3.01v-.131c.004-.236-.811-.267-.813-.04l-.025 2.073-.016 1.39c-1.114-2.517-3.717-5.334-9.701-6.39 0 0-.641 6.982 9.65 10.707l-.09 7.594c-.627-2.796-2.847-6.817-10.272-8.126 0 0-.666 7.246 10.24 10.912l-.084 7.184c-.866-2.712-3.32-6.131-10.054-7.32 0 0-.657 7.147 10.012 10.836l-.075 6.37c-.966-2.645-3.492-5.82-9.93-6.955 0 0-.652 7.088 9.886 10.79l-.112 9.49c-.041 3.496-.082 8.147-.123 11.643" transform="translate(-229 -4403) translate(229 4403)"/>
                <path fill="#D63333" d="M13.975 30.53c4.72 0 8.547-3.844 8.547-8.587 0-4.742-3.827-8.586-8.547-8.586-4.72 0-8.547 3.844-8.547 8.586 0 4.743 3.827 8.587 8.547 8.587" transform="translate(-229 -4403) translate(229 4403)"/>
                <path stroke="#FEFEFE" stroke-width="1.1" d="M13.975 30.53c4.72 0 8.547-3.844 8.547-8.587 0-4.742-3.827-8.586-8.547-8.586-4.72 0-8.547 3.844-8.547 8.586 0 4.743 3.827 8.587 8.547 8.587z" transform="translate(-229 -4403) translate(229 4403)"/>
                <path fill="#FFF" d="M12.492 19.914c0-.276.123-.493.37-.652.245-.158.573-.237.985-.237.296 0 .62.052.975.156.354.105.695.262 1.026.47l.403-.87c-.277-.181-.59-.332-.94-.453-.35-.122-.71-.196-1.08-.223v-1.212h-.739v1.222c-.633.068-1.138.268-1.515.602-.377.333-.566.759-.566 1.278 0 .43.104.778.309 1.04.204.263.455.462.752.597.296.134.68.272 1.152.414.384.115.688.219.915.313.226.095.412.222.56.384.149.162.223.367.223.616 0 .317-.136.568-.41.753-.273.186-.645.278-1.117.278-.396 0-.806-.09-1.226-.268-.421-.178-.8-.432-1.138-.763l-.433.839c.33.31.712.563 1.146.758.434.195.884.31 1.348.343v1.334h.738v-1.344c.66-.074 1.185-.288 1.576-.641.392-.354.586-.804.586-1.35 0-.437-.104-.79-.313-1.055-.209-.266-.462-.466-.758-.601-.296-.135-.684-.276-1.162-.425-.384-.121-.684-.227-.899-.318-.216-.091-.397-.215-.546-.374-.148-.158-.222-.362-.222-.611" transform="translate(-229 -4403) translate(229 4403)"/>
                <path fill="#D63333" d="M9.214 57.412c4.72 0 8.547-3.844 8.547-8.587 0-4.742-3.827-8.586-8.547-8.586-4.72 0-8.547 3.844-8.547 8.586 0 4.743 3.827 8.587 8.547 8.587" transform="translate(-229 -4403) translate(229 4403)"/>
                <path stroke="#FEFEFE" stroke-width="1.1" d="M9.214 57.412c4.72 0 8.547-3.844 8.547-8.587 0-4.742-3.827-8.586-8.547-8.586-4.72 0-8.547 3.844-8.547 8.586 0 4.743 3.827 8.587 8.547 8.587z" transform="translate(-229 -4403) translate(229 4403)"/>
                <path fill="#FFF" d="M7.731 46.796c0-.276.123-.493.37-.652.245-.158.573-.237.984-.237.296 0 .621.052.975.156.354.105.695.262 1.026.47l.404-.869c-.277-.182-.59-.333-.94-.454-.35-.122-.71-.196-1.08-.223v-1.212H8.73v1.222c-.633.068-1.138.268-1.515.602-.378.333-.566.76-.566 1.278 0 .431.103.778.308 1.041.205.262.456.461.753.596.296.134.68.272 1.152.414.384.115.688.22.914.313.226.095.413.222.561.384.148.162.222.367.222.616 0 .317-.136.568-.409.753-.273.186-.645.278-1.117.278-.397 0-.806-.089-1.227-.268-.42-.178-.8-.432-1.137-.763l-.434.84c.33.31.712.562 1.146.757.435.195.885.31 1.35.343v1.334h.737v-1.344c.66-.074 1.185-.288 1.576-.64.391-.355.586-.805.586-1.35 0-.438-.104-.79-.313-1.056-.209-.266-.462-.466-.758-.6-.296-.136-.684-.277-1.162-.426-.384-.12-.684-.227-.899-.318-.216-.09-.398-.215-.546-.374-.148-.158-.222-.362-.222-.61" transform="translate(-229 -4403) translate(229 4403)"/>
                <path fill="#D63333" d="M41.125 17.535c4.72 0 8.547-3.844 8.547-8.587 0-4.742-3.827-8.586-8.547-8.586-4.72 0-8.547 3.844-8.547 8.586 0 4.743 3.827 8.587 8.547 8.587" transform="translate(-229 -4403) translate(229 4403)"/>
                <path stroke="#FEFEFE" stroke-width="1.1" d="M41.125 17.535c4.72 0 8.547-3.844 8.547-8.587 0-4.742-3.827-8.586-8.547-8.586-4.72 0-8.547 3.844-8.547 8.586 0 4.743 3.827 8.587 8.547 8.587z" transform="translate(-229 -4403) translate(229 4403)"/>
                <path fill="#FFF" d="M39.642 6.918c0-.276.123-.492.369-.652.246-.157.574-.237.985-.237.296 0 .62.053.975.157.354.104.695.261 1.026.47l.404-.87c-.277-.181-.59-.332-.94-.454s-.711-.196-1.081-.223V3.897h-.738V5.12c-.633.067-1.138.268-1.515.601-.378.333-.566.76-.566 1.279 0 .43.103.777.308 1.04.205.263.456.462.753.597.296.133.68.271 1.152.413.384.115.688.22.914.313.226.096.413.223.56.385.149.162.223.367.223.616 0 .316-.136.567-.41.752-.272.187-.644.279-1.116.279-.397 0-.806-.09-1.227-.268-.421-.179-.8-.433-1.137-.764l-.434.84c.33.31.712.563 1.146.758.435.194.885.31 1.349.342v1.334h.738v-1.344c.66-.073 1.185-.287 1.576-.64.39-.354.586-.805.586-1.35 0-.438-.104-.79-.313-1.056-.21-.265-.462-.466-.758-.6-.296-.136-.684-.277-1.162-.425-.384-.121-.684-.227-.9-.318-.215-.091-.397-.215-.545-.375-.148-.157-.222-.361-.222-.61" transform="translate(-229 -4403) translate(229 4403)"/>
                <path fill="#D63333" d="M68.975 30.103c4.72 0 8.547-3.844 8.547-8.587 0-4.742-3.827-8.586-8.547-8.586-4.72 0-8.547 3.844-8.547 8.586 0 4.743 3.827 8.587 8.547 8.587" transform="translate(-229 -4403) translate(229 4403)"/>
                <path stroke="#FEFEFE" stroke-width="1.1" d="M68.975 30.103c4.72 0 8.547-3.844 8.547-8.587 0-4.742-3.827-8.586-8.547-8.586-4.72 0-8.547 3.844-8.547 8.586 0 4.743 3.827 8.587 8.547 8.587z" transform="translate(-229 -4403) translate(229 4403)"/>
                <path fill="#FFF" d="M67.493 19.487c0-.276.123-.493.369-.652.246-.158.574-.237.985-.237.296 0 .62.052.975.156.353.105.694.262 1.025.47l.404-.869c-.276-.182-.59-.333-.94-.454-.35-.122-.71-.196-1.08-.223v-1.212h-.738v1.222c-.633.068-1.138.268-1.515.602-.378.333-.566.76-.566 1.278 0 .431.102.778.307 1.041.206.262.457.461.754.596.296.134.68.272 1.151.414.385.115.689.22.915.313.225.095.412.222.56.384.148.162.222.367.222.616 0 .317-.135.568-.409.753-.273.186-.645.278-1.117.278-.397 0-.805-.089-1.227-.268-.42-.178-.8-.432-1.136-.763l-.434.84c.33.31.712.562 1.145.757.436.195.885.31 1.35.343v1.334h.738v-1.344c.66-.074 1.184-.288 1.576-.64.39-.355.585-.805.585-1.35 0-.438-.103-.79-.313-1.056-.208-.266-.461-.466-.757-.6-.297-.136-.684-.277-1.163-.426-.384-.12-.684-.227-.899-.318-.216-.09-.398-.215-.546-.374-.147-.158-.221-.362-.221-.61" transform="translate(-229 -4403) translate(229 4403)"/>
                <path fill="#D63333" d="M74.482 57.412c4.72 0 8.547-3.844 8.547-8.587 0-4.742-3.827-8.586-8.547-8.586-4.72 0-8.547 3.844-8.547 8.586 0 4.743 3.827 8.587 8.547 8.587" transform="translate(-229 -4403) translate(229 4403)"/>
                <path stroke="#FEFEFE" stroke-width="1.1" d="M74.482 57.412c4.72 0 8.547-3.844 8.547-8.587 0-4.742-3.827-8.586-8.547-8.586-4.72 0-8.547 3.844-8.547 8.586 0 4.743 3.827 8.587 8.547 8.587z" transform="translate(-229 -4403) translate(229 4403)"/>
                <path fill="#FFF" d="M73 46.796c0-.276.122-.493.368-.652.246-.158.574-.237.985-.237.296 0 .621.052.975.156.354.105.695.262 1.026.47l.404-.869c-.277-.182-.59-.333-.94-.454-.35-.122-.71-.196-1.08-.223v-1.212h-.739v1.222c-.633.068-1.138.268-1.515.602-.378.333-.566.76-.566 1.278 0 .431.103.778.308 1.041.205.262.456.461.753.596.296.134.68.272 1.152.414.384.115.688.22.914.313.226.095.413.222.561.384.148.162.222.367.222.616 0 .317-.136.568-.409.753-.273.186-.645.278-1.117.278-.397 0-.806-.089-1.227-.268-.42-.178-.8-.432-1.137-.763l-.434.84c.33.31.712.562 1.146.757.435.195.885.31 1.35.343v1.334h.737v-1.344c.66-.074 1.185-.288 1.576-.64.391-.355.586-.805.586-1.35 0-.438-.104-.79-.313-1.056-.209-.266-.462-.466-.758-.6-.296-.136-.684-.277-1.162-.426-.384-.12-.684-.227-.899-.318-.216-.09-.398-.215-.546-.374-.148-.158-.222-.362-.222-.61" transform="translate(-229 -4403) translate(229 4403)"/>
            </g>
        </g>
    </g>
</svg>
