<svg xmlns="http://www.w3.org/2000/svg" width="78" height="90" viewBox="0 0 78 90">
    <g fill="none" fill-rule="evenodd">
        <g>
            <g>
                <path fill="#D63333" d="M71.557 48.799h-.022c-.001.002-.003.002-.004.002-2.546.354-5.202 1.25-6.85 3.336-.513.648-.901 1.384-1.158 2.164l.05-4.178.012-1.021c2.37-.716 4.727-1.854 6.34-3.782.88-1.05 1.514-2.338 1.689-3.705.032-.25.057-.508.037-.76-.004-.055-.141-.071-.206-.05-2.532.355-5.17 1.249-6.822 3.307-.414.515-.748 1.089-1 1.697l.008-.696c.01-.787.045-1.58.028-2.366 0-.034 0-.068.002-.102.002-.186-.64-.21-.641-.032-.006.543-.012 1.087-.02 1.63l-.012 1.092c-.875-1.98-2.921-4.192-7.624-5.022 0 0-.504 5.488 7.584 8.415l-.07 5.969c-.493-2.198-2.238-5.358-8.074-6.387 0 0-.523 5.695 8.049 8.576l-.067 5.646c-.68-2.131-2.608-4.818-7.902-5.752 0 0-.516 5.616 7.87 8.516l-.06 5.007c-.76-2.08-2.744-4.575-7.804-5.467 0 0-.513 5.57 7.77 8.48-.03 2.487-.06 4.973-.088 7.459l-.033 2.822c.216-.123.43-.247.645-.374 0-.115.002-.231.004-.347l.102-8.728.006-.483c2.407-.714 4.812-1.856 6.45-3.814.88-1.05 1.515-2.337 1.689-3.704.032-.25.057-.51.037-.76-.004-.057-.142-.075-.206-.054-2.532.355-5.17 1.247-6.821 3.305-.48.597-.853 1.273-1.113 1.99l.059-5.02c2.406-.714 4.809-1.858 6.447-3.815.88-1.051 1.514-2.338 1.689-3.705.03-.25.057-.51.037-.76-.005-.055-.141-.07-.206-.046-2.532.354-5.17 1.249-6.823 3.307-.477.594-.85 1.266-1.11 1.978l.065-5.385c2.443-.715 4.896-1.871 6.547-3.87.866-1.05 1.49-2.326 1.658-3.684.03-.246.053-.501.033-.75-.003-.042-.104-.08-.171-.08M47.35 36.954h-.014l-.008.001-.004.001c-2.546.354-5.202 1.251-6.85 3.336-.513.648-.9 1.384-1.158 2.164l.05-4.178.012-1.02c2.37-.717 4.727-1.855 6.341-3.783.88-1.05 1.513-2.338 1.688-3.705.032-.249.057-.508.037-.76-.004-.055-.14-.07-.206-.049-2.532.354-5.17 1.248-6.822 3.306-.414.515-.748 1.09-1 1.697l.008-.696c.01-.787.045-1.579.028-2.366l.002-.102c.002-.186-.639-.21-.64-.032l-.02 1.63-.013 1.092c-.875-1.978-2.92-4.192-7.624-5.022 0 0-.504 5.488 7.584 8.415l-.07 5.97c-.493-2.199-2.238-5.359-8.074-6.388 0 0-.523 5.695 8.05 8.576-.024 1.882-.046 3.764-.068 5.646-.68-2.13-2.608-4.818-7.902-5.752 0 0-.516 5.616 7.87 8.516l-.059 5.007c-.76-2.08-2.745-4.575-7.805-5.467 0 0-.513 5.571 7.77 8.481l-.088 7.458-.097 8.243-.082 6.941-.058 5.01c-.003.222-.008.444-.013.667.215.004.43.007.645.008l.05-4.239.077-6.533.094-7.996.102-8.728.006-.483c2.407-.714 4.812-1.856 6.451-3.814.88-1.05 1.514-2.337 1.688-3.704.032-.249.057-.509.037-.76-.004-.057-.142-.074-.206-.054-2.532.355-5.169 1.247-6.82 3.305-.48.597-.854 1.273-1.114 1.99l.06-5.02c2.405-.714 4.808-1.858 6.446-3.815.88-1.05 1.514-2.338 1.69-3.705.03-.249.056-.508.036-.76-.005-.055-.14-.069-.206-.046-2.532.354-5.17 1.25-6.823 3.307-.477.594-.849 1.266-1.109 1.978l.064-5.385c2.443-.715 4.896-1.87 6.547-3.87.866-1.049 1.49-2.326 1.658-3.684.03-.246.053-.5.033-.749-.003-.043-.104-.08-.17-.08M23.35 49.212h-.013l-.008.001-.004.001c-2.546.354-5.202 1.251-6.85 3.336-.513.648-.901 1.384-1.157 2.164l.049-4.178.012-1.021c2.37-.716 4.727-1.854 6.34-3.782.88-1.05 1.514-2.338 1.689-3.705.032-.249.057-.508.037-.76-.004-.055-.141-.071-.206-.049-2.532.354-5.17 1.248-6.822 3.306-.414.515-.75 1.089-1 1.697l.008-.696c.01-.787.045-1.579.028-2.366 0-.034 0-.068.002-.102.002-.186-.64-.21-.641-.032-.006.543-.012 1.087-.02 1.63l-.012 1.092c-.875-1.979-2.921-4.192-7.624-5.022 0 0-.504 5.488 7.584 8.415l-.07 5.968c-.493-2.197-2.238-5.357-8.074-6.386 0 0-.523 5.695 8.049 8.576l-.067 5.646c-.68-2.131-2.608-4.818-7.902-5.752 0 0-.516 5.616 7.87 8.516l-.06 5.007c-.76-2.08-2.744-4.575-7.804-5.467 0 0-.513 5.571 7.769 8.481l-.087 7.458-.02 1.716c.21.128.423.254.636.379l.102-8.722.006-.483c2.407-.714 4.812-1.856 6.45-3.814.88-1.05 1.515-2.337 1.689-3.704.032-.249.057-.509.037-.76-.004-.057-.142-.075-.206-.054-2.532.355-5.17 1.247-6.822 3.305-.48.597-.852 1.273-1.112 1.99l.059-5.02c2.406-.714 4.809-1.858 6.447-3.815.88-1.051 1.514-2.338 1.688-3.705.032-.249.058-.509.038-.76-.005-.055-.141-.069-.206-.047-2.532.355-5.17 1.25-6.823 3.308-.477.594-.85 1.266-1.11 1.978.023-1.795.044-3.59.065-5.385 2.443-.715 4.896-1.871 6.547-3.87.866-1.049 1.49-2.326 1.658-3.684.03-.246.053-.501.033-.749-.003-.043-.104-.081-.171-.08" transform="translate(-831 -4403) translate(831 4403)"/>
                <path fill="#FEFEFE" d="M14.988 20.62c.177 0 .32.145.32.322v5.447c0 .177-.143.32-.32.32-.177 0-.321-.143-.321-.32v-5.447c0-.177.144-.321.32-.321M14.988 15.722c.177 0 .32.144.32.321v2.955c0 .177-.143.321-.32.321-.177 0-.321-.144-.321-.32v-2.956c0-.177.144-.32.32-.32M14.988 27.504c.177 0 .32.144.32.32v1.14c0 .178-.143.32-.32.32-.177 0-.321-.142-.321-.32v-1.14c0-.176.144-.32.32-.32M17.5 16.527c.153 0 .288.111.315.268l1.396 8.362c.03.175-.088.34-.263.37-.175.027-.34-.09-.369-.264L17.182 16.9c-.029-.173.09-.338.264-.368.018-.003.035-.005.053-.005M19.274 27.156c.154 0 .29.111.316.268l.576 3.45c.03.174-.088.34-.264.368-.175.028-.338-.089-.369-.264l-.576-3.449c-.029-.174.09-.339.264-.369.018-.003.035-.004.053-.004M19.453 15.052c.135 0 .26.086.304.22l1.817 5.515c.055.168-.036.35-.205.405-.169.055-.349-.036-.404-.204l-1.817-5.515c-.055-.168.037-.349.205-.405.033-.01.067-.016.1-.016M22.034 22.889c.135 0 .26.085.305.22l2.794 8.483c.055.169-.037.35-.205.405-.17.056-.35-.035-.404-.203l-2.795-8.485c-.055-.168.037-.349.205-.405.033-.01.067-.015.1-.015M12.622 16.527c.018 0 .035.002.053.005.175.03.293.195.264.369l-1.397 8.363c-.029.174-.194.291-.369.262-.175-.029-.293-.194-.263-.369l1.396-8.361c.026-.157.162-.268.316-.268M10.847 27.156c.018 0 .035.001.053.004.175.03.293.195.264.37l-.576 3.448c-.03.175-.194.293-.37.264-.174-.029-.292-.194-.263-.369l.576-3.449c.027-.157.162-.268.316-.268M10.668 15.052c.033 0 .067.005.1.016.168.056.26.237.205.405l-1.817 5.515c-.055.168-.236.26-.405.204-.168-.055-.259-.237-.204-.405l1.816-5.515c.045-.134.17-.22.305-.22M8.087 22.889c.033 0 .067.005.1.015.168.056.26.238.204.405l-2.794 8.485c-.055.168-.236.259-.404.203-.168-.055-.26-.236-.205-.404l2.794-8.485c.045-.134.17-.22.305-.22M38.987 5.698c.177 0 .321.144.321.32v5.448c0 .177-.144.32-.32.32-.178 0-.322-.143-.322-.32V6.019c0-.177.144-.321.321-.321M38.987.8c.177 0 .321.143.321.32v2.955c0 .177-.144.321-.32.321-.178 0-.322-.144-.322-.32V1.12c0-.177.144-.32.321-.32M38.987 12.58c.177 0 .321.145.321.322v1.14c0 .177-.144.32-.32.32-.178 0-.322-.143-.322-.32v-1.14c0-.177.144-.321.321-.321M41.499 1.605c.154 0 .289.11.316.268l1.396 8.361c.03.175-.088.34-.263.37-.175.028-.34-.09-.37-.263l-1.396-8.363c-.03-.174.089-.34.264-.37.018-.003.035-.004.053-.004M43.274 12.233c.154 0 .289.111.316.268l.576 3.45c.029.174-.089.34-.264.368-.175.028-.339-.089-.369-.264l-.576-3.449c-.029-.174.089-.339.264-.369.018-.003.035-.004.053-.004M43.453.13c.135 0 .26.085.304.22l1.817 5.514c.055.168-.036.35-.205.405-.17.055-.35-.036-.404-.204L43.148.55c-.055-.168.037-.349.205-.405.033-.01.067-.016.1-.016M46.033 7.966c.135 0 .26.086.305.22l2.794 8.484c.055.168-.037.349-.205.405-.169.055-.349-.036-.404-.204l-2.795-8.484c-.055-.168.037-.35.205-.405.033-.011.067-.016.1-.016M36.622 1.605c.018 0 .035 0 .053.004.175.03.293.195.264.369l-1.397 8.362c-.03.175-.194.293-.37.264-.174-.03-.292-.194-.262-.37l1.396-8.361c.026-.157.162-.268.316-.268M34.846 12.233c.018 0 .035.001.053.004.175.03.293.195.264.37l-.576 3.448c-.029.175-.194.293-.369.264-.175-.029-.293-.194-.264-.369l.576-3.449c.027-.157.162-.268.316-.268M34.667.13c.033 0 .067.004.1.015.168.056.26.237.205.405l-1.816 5.515c-.056.168-.236.26-.405.204-.168-.055-.26-.237-.204-.405L34.363.35c.044-.134.17-.22.304-.22M32.087 7.966c.033 0 .067.005.1.016.168.056.26.237.204.405l-2.794 8.484c-.055.168-.236.259-.404.204-.168-.056-.26-.237-.205-.405l2.794-8.484c.045-.134.17-.22.305-.22M63.532 20.698c-.177-.003-.323.138-.326.315l-.095 5.446c-.003.177.138.323.315.327.177.003.323-.138.326-.315l.095-5.447c.003-.177-.138-.323-.315-.326M63.618 15.8c-.177-.003-.323.138-.326.315l-.052 2.955c-.003.177.138.323.315.326.177.004.323-.138.326-.315l.052-2.955c.003-.177-.138-.323-.315-.326M63.412 27.58c-.177-.003-.323.138-.326.315l-.02 1.14c-.003.177.138.323.315.326.177.003.323-.138.326-.315l.02-1.14c.003-.177-.138-.323-.315-.326M61.093 16.561c-.154-.003-.291.106-.32.262L59.23 25.16c-.032.174.083.341.257.373.174.032.34-.083.374-.257l1.542-8.336c.032-.174-.083-.342-.257-.374-.018-.003-.035-.005-.053-.005M59.132 27.157c-.154-.003-.29.107-.32.262l-.636 3.44c-.033.173.082.34.256.372.175.032.342-.083.374-.257l.636-3.438c.032-.174-.083-.34-.257-.373-.018-.003-.035-.006-.053-.006M59.165 15.052c-.135-.002-.261.081-.308.215l-1.912 5.482c-.06.168.03.35.197.41.168.057.35-.032.408-.199l1.912-5.482c.058-.167-.03-.35-.197-.408-.033-.012-.067-.017-.1-.018M56.448 22.842c-.135-.002-.262.081-.308.215l-2.942 8.434c-.058.167.03.35.197.408.168.058.35-.03.408-.197l2.942-8.434c.058-.167-.03-.35-.197-.408-.033-.012-.067-.017-.1-.018M65.97 16.646c-.019 0-.036.002-.054.003-.175.027-.296.19-.27.366l1.251 8.384c.026.175.188.296.364.27.175-.026.296-.189.27-.364l-1.25-8.386c-.024-.157-.158-.27-.312-.273M67.559 27.305c-.018 0-.035 0-.053.003-.176.027-.296.19-.27.365l.516 3.458c.026.176.188.296.364.27.175-.026.296-.19.27-.364l-.516-3.46c-.024-.156-.157-.27-.311-.272M67.949 15.206c-.033-.001-.067.004-.1.014-.17.053-.264.232-.212.402l1.72 5.545c.052.169.23.264.4.21.17-.051.265-.231.212-.4l-1.72-5.545c-.041-.136-.165-.224-.3-.226M70.392 23.086c-.033-.001-.067.004-.1.014-.169.053-.264.232-.212.402l2.646 8.53c.052.17.231.265.401.212.17-.052.264-.232.211-.401l-2.645-8.531c-.042-.136-.166-.224-.3-.226M29.335 83.645c0 .755-6.508 1.367-14.535 1.367-8.028 0-14.536-.612-14.536-1.367 0-.754 6.508-1.365 14.536-1.365 8.027 0 14.535.611 14.535 1.365M77.614 83.645c0 .755-6.508 1.367-14.535 1.367-8.028 0-14.536-.612-14.536-1.367 0-.754 6.508-1.365 14.536-1.365 8.027 0 14.535.611 14.535 1.365M52.942 88.433c0 .754-6.508 1.366-14.535 1.366-8.028 0-14.536-.612-14.536-1.366 0-.754 6.508-1.366 14.536-1.366 8.027 0 14.535.613 14.535 1.367" transform="translate(-831 -4403) translate(831 4403)"/>
            </g>
        </g>
    </g>
</svg>
