<svg xmlns="http://www.w3.org/2000/svg" width="80" height="80" viewBox="0 0 80 80">
    <g fill="none" fill-rule="evenodd">
        <g fill="#126353">
            <g>
                <path d="M753.032 500.122c1.953 0 4.824-.368 6.713-2.254 3.031-3.027 2.146-8.582 2.107-8.817-.07-.422-.4-.752-.822-.822-.236-.04-5.797-.922-8.827 2.104-.168.168-.32.347-.465.529v-3.553c1.16-.937 4.333-3.823 4.333-7.399 0-4.282-4.559-7.585-4.752-7.724-.348-.248-.814-.248-1.162 0-.193.139-4.752 3.442-4.752 7.724 0 3.576 3.173 6.462 4.333 7.399v3.528c-.14-.173-.283-.343-.443-.504-3.03-3.025-8.59-2.142-8.827-2.104-.422.07-.752.4-.823.822-.039.235-.924 5.79 2.108 8.817 1.888 1.886 4.76 2.254 6.713 2.254.495 0 .925-.024 1.272-.053v6.242c-.14-.173-.283-.344-.443-.504-3.03-3.027-8.59-2.143-8.827-2.104-.422.069-.752.4-.823.822-.039.235-.924 5.789 2.108 8.817 1.888 1.885 4.76 2.253 6.713 2.253.495 0 .925-.024 1.272-.053v6.255c-.14-.173-.283-.343-.443-.504-3.03-3.025-8.59-2.142-8.827-2.104-.422.07-.752.4-.823.822-.039.235-.924 5.79 2.108 8.818 1.888 1.884 4.76 2.252 6.713 2.252.495 0 .925-.024 1.272-.052v6.255c-.14-.173-.283-.344-.443-.504-3.03-3.028-8.59-2.143-8.827-2.105-.422.07-.752.401-.823.822-.039.236-.924 5.791 2.108 8.818 1.89 1.886 4.76 2.254 6.714 2.254.495 0 .925-.025 1.271-.053V550H722.99v-3.486c.35.029.787.055 1.293.055 1.952 0 4.825-.369 6.714-2.254 3.031-3.027 2.146-8.582 2.107-8.818-.07-.421-.4-.752-.822-.822-.236-.04-5.796-.922-8.827 2.105-.168.168-.32.346-.465.528v-6.281c.35.029.788.054 1.294.054 1.953 0 4.824-.368 6.713-2.252 3.031-3.028 2.146-8.583 2.107-8.818-.07-.422-.4-.752-.822-.822-.236-.04-5.796-.922-8.827 2.104-.168.168-.32.347-.465.529v-6.282c.35.03.788.055 1.294.055 1.953 0 4.824-.368 6.713-2.253 3.031-3.028 2.146-8.582 2.107-8.817-.07-.422-.4-.753-.822-.822-.236-.04-5.796-.922-8.827 2.104-.168.168-.32.346-.465.528v-6.267c.35.029.788.054 1.294.054 1.953 0 4.824-.368 6.713-2.254 3.031-3.027 2.146-8.582 2.107-8.817-.07-.422-.4-.752-.822-.822-.236-.04-5.796-.922-8.827 2.104-.168.168-.32.347-.465.529v-3.553c1.16-.937 4.333-3.823 4.333-7.399 0-4.282-4.558-7.585-4.752-7.724-.348-.248-.814-.248-1.162 0-.194.139-4.752 3.442-4.752 7.724 0 3.576 3.172 6.462 4.333 7.399v3.528c-.139-.173-.283-.343-.443-.504-3.03-3.025-8.59-2.142-8.828-2.104-.42.07-.75.4-.822.822-.039.235-.923 5.79 2.108 8.817 1.89 1.886 4.76 2.254 6.713 2.254.495 0 .926-.024 1.272-.053v6.242c-.139-.173-.283-.344-.443-.504-3.03-3.027-8.59-2.143-8.828-2.104-.42.069-.75.4-.822.822-.039.235-.923 5.789 2.108 8.817 1.89 1.885 4.76 2.253 6.712 2.253.496 0 .927-.024 1.273-.053v6.255c-.139-.173-.283-.343-.443-.504-3.03-3.025-8.59-2.142-8.828-2.104-.42.07-.75.4-.822.822-.039.235-.923 5.79 2.108 8.818 1.89 1.884 4.76 2.252 6.712 2.252.496 0 .927-.024 1.273-.052v6.255c-.139-.173-.283-.344-.443-.504-3.03-3.028-8.59-2.143-8.828-2.105-.42.07-.75.401-.822.822-.039.236-.923 5.791 2.108 8.818 1.89 1.886 4.76 2.254 6.714 2.254.495 0 .925-.025 1.271-.053V550h-26.748v-3.486c.35.029.788.055 1.293.055 1.953 0 4.825-.369 6.713-2.254 3.032-3.027 2.147-8.582 2.108-8.818-.07-.421-.4-.752-.822-.822-.236-.04-5.797-.922-8.827 2.105-.168.168-.32.346-.465.528v-6.281c.35.029.788.054 1.294.054 1.953 0 4.824-.368 6.712-2.252 3.032-3.028 2.147-8.583 2.108-8.818-.07-.422-.4-.752-.822-.822-.236-.04-5.797-.922-8.827 2.104-.168.168-.32.347-.465.529v-6.282c.35.03.788.055 1.294.055 1.953 0 4.824-.368 6.712-2.253 3.032-3.028 2.147-8.582 2.108-8.817-.07-.422-.4-.753-.822-.822-.236-.04-5.797-.922-8.827 2.104-.168.168-.32.346-.465.528v-6.267c.35.029.788.054 1.294.054 1.953 0 4.824-.368 6.712-2.254 3.032-3.027 2.147-8.582 2.108-8.817-.07-.422-.4-.752-.822-.822-.236-.04-5.797-.922-8.827 2.104-.168.168-.32.347-.465.529v-3.553c1.161-.937 4.333-3.824 4.333-7.399 0-4.282-4.558-7.585-4.752-7.724-.348-.248-.814-.248-1.162 0-.194.139-4.753 3.442-4.753 7.724 0 3.576 3.173 6.462 4.334 7.399v3.528c-.139-.173-.283-.343-.443-.504-3.03-3.025-8.592-2.142-8.828-2.104-.42.07-.752.4-.822.822-.039.235-.923 5.79 2.108 8.817 1.89 1.886 4.76 2.254 6.712 2.254.496 0 .927-.024 1.273-.053v6.242c-.139-.173-.283-.344-.443-.504-3.03-3.027-8.592-2.143-8.828-2.104-.42.069-.752.4-.822.822-.039.235-.923 5.789 2.108 8.817 1.89 1.885 4.76 2.253 6.712 2.253.496 0 .927-.024 1.273-.053v6.255c-.139-.173-.283-.343-.443-.504-3.03-3.025-8.592-2.142-8.828-2.104-.42.07-.752.4-.822.822-.039.235-.923 5.79 2.108 8.818 1.89 1.884 4.76 2.252 6.712 2.252.496 0 .927-.024 1.273-.052v6.255c-.139-.173-.283-.344-.443-.504-3.03-3.028-8.592-2.143-8.828-2.105-.42.07-.752.401-.822.822-.039.236-.923 5.791 2.108 8.818 1.89 1.886 4.76 2.254 6.713 2.254.496 0 .926-.025 1.272-.053V550h-9.24c-.553 0-1 .448-1 1 0 .553.447 1 1 1h78c.551 0 1-.447 1-1 0-.552-.449-1-1-1h-9.264v-3.486c.35.029.787.055 1.293.055 1.952 0 4.825-.369 6.714-2.254 3.031-3.027 2.146-8.582 2.107-8.818-.07-.421-.4-.752-.822-.822-.236-.04-5.797-.922-8.827 2.105-.168.168-.32.346-.465.528v-6.281c.35.029.788.054 1.294.054 1.953 0 4.824-.368 6.713-2.252 3.031-3.028 2.146-8.583 2.107-8.818-.07-.422-.4-.752-.822-.822-.236-.04-5.797-.922-8.827 2.104-.168.168-.32.347-.465.529v-6.282c.35.03.788.055 1.294.055 1.953 0 4.824-.368 6.713-2.253 3.031-3.028 2.146-8.582 2.107-8.817-.07-.422-.4-.753-.822-.822-.236-.04-5.797-.922-8.827 2.104-.168.168-.32.346-.465.528v-6.267c.35.029.788.054 1.294.054" transform="translate(-681 -2722) translate(-1 2250)"/>
            </g>
        </g>
    </g>
</svg>
