<svg xmlns="http://www.w3.org/2000/svg" width="90" height="90" viewBox="0 0 90 90">
    <g fill="none" fill-rule="evenodd">
        <g>
            <g>
                <path fill="#FEFEFE" d="M51.164.462C26.865-3.03 4.255 13.897.762 38.196-2.73 62.495 14.197 85.105 38.496 88.598c2.14.307 4.263.456 6.363.456 21.766 0 40.854-16.03 44.04-38.19C92.39 26.564 75.462 3.954 51.163.462" transform="translate(-530 -4402) translate(530 4402)"/>
                <path fill="#D63333" d="M26.752 43.708s.716 1.603.009 2.685c-.709 1.083-2.83 1.015-3.075 3.269-.245 2.254.262 3.117 1.288 4.764 1.026 1.648.252 2.642 1.4 3.438 1.15.797 3.846 1.263 3.314 3.318-.534 2.055-1.476 5.867-.98 6.807.498.94-.132.928-.3 2.089-.167 1.16 1.48 2.344 1.345 3.824-.134 1.48-1.605 2.928-.645 4.487.96 1.559 1.204.962 1.634 2.366.43 1.404.74 2 1.501 2.189.762.189 2 .367 2.453 1.063.453.697 1.58-.562.819-1.303-.763-.741-1.745-.488-1.458-1.946.29-1.46 1.14-1.89-.02-2.608-1.158-.72-.96-1.56-.483-1.57.474-.011 1.569-.485.652-1.248-.917-.763-1.204-.963-.497-.94.707.023 2.895.732 4.82-1.123 1.924-1.855 3.661-4.053 3.661-4.053s.576-1.26.367-2.552c-.209-1.293.786-1.624 2.498-1.457 1.714.167 1.516-.651 1.516-.651s1.513 1.56 2.026-4.761c0 0-.087-1.04 1.858-1.943 1.947-.905.302-3.194-.803-3.195 0 0-.43-1.404-1.348-1.614-.916-.211-3.006.04-3.855-.634-.852-.674-2.033-1.24-2.033-1.24s1.043-4.507-3.378-4.511c0 0-.638-3.25-2.86-3.174-2.22.075-2.486.274-2.806-.245-.32-.52-.739-2.554-2.297-2.146-1.558.407-1.925 2.407-3.438 1.953-1.515-.455-3.427-.335-2.973-1.848.455-1.514.711-3.293-1.654-3.317 0 0-.597-.244.387-1.05.986-.806.534-2.055-.03-1.978-.565.077-2.235 1.258-3.03 1.302-.796.043-3.337-.401-1.942-3.516 1.396-3.116 8.07-3.42 8.556-1.85.485 1.57-.08 2.199 1.479 2.344 1.558.145 1.085-2.607 1.085-2.607L33.76 27.9s.443-.331.753-.84c.31-.508 5.483-3.001 6.602-4.735 1.116-1.734 1.493-2.706 2.962-1.942 1.47.763 2.078.93 2.454-.042.377-.973 2.309 1.516 3.093.444.786-1.071.422-2.386-1.202-2.62-1.623-.233.5-1.823-.152-2.232-.652-.41-1.88.993-2.51.429-.628-.565.7-2.663-1.422-2.731-2.123-.068-2.388.13-3.041 2.484-.654 2.353-1.58.009-3.252 1.743-1.67 1.733-1.282.684-1.447-.366-.164-1.05-1.313-1.847-2.484-1.936-1.171-.09-.706-2.233 1.019-2.696 1.723-.462 3.813-1.267 3.813-1.267s.187 1.447 1.425 1.073c1.238-.375 1.66-1.656 1.66-1.656l1.236.177s.841-.905 1.084-.95c.243-.043 2.785.4 2.785.4s1.436-.108.076.565c-1.359.673-2.188-.157-1.89 1.07.297 1.227.397.53 1.303 1.372.906.84 2.353.654 2.675-.484 0 0 1.867.742 2.277-.463.41-1.204-.563-1.58-.563-1.58s-.164-1.603-1.832-2.632c-1.668-1.03-5.889-1.873-6.288.359-.4 2.232-2.09.805-2.09.805S41.822 9.164 42 7.926c.178-1.237-3.137-1.793-3.215-.7-.078 1.095.718 1.604-.178 1.79-.895.188-1.724.464-2.84.54-1.116.077-1.237-1.283-1.237-1.283s.85.123 2.077-.175c1.227-.297 1.947-1.457.587-1.89-1.358-.431.089 1.04-2.928.607 0 0-.376-.133-.706-1.128-.331-.995-3.104-1.473-4.1-.59-.995.884-.465 1.59.363 1.868.829.277-.354.818.95 1.084 1.303.267 1.834.422 1.468.764-.365.342-6.883-1.542-6.75-3.023 0 0-13.088 5.935-18.316 18.13 0 0 .132.73.972.93.84.199 1.381.277 1.07 1.89-.31 1.614-.8 5.017 1.356 5.406 2.154.388 1.073-1.425.565-2.288-.508-.862-.837-3.515.412-2.861 1.248.653-.588.784 1.277 4.289 1.865 3.504-1.019 3.248 1.223 5.78 2.24 2.533 3.492-.13 4.232.767.739.895.032 1.425 1.5 1.636 1.47.212.853-.43 1.514 1.007.661 1.438 1.123 4.267 5.456 3.232" transform="translate(-530 -4402) translate(530 4402)"/>
                <path fill="#D63333" d="M41.721 23.044s-1.172.463-.63 1.094c.54.63 2.01.289.63-1.094M43.447 20.923s-.685-.177-.796.596c-.11.773 1.17 1.195 1.57.62.397-.574-.774-1.216-.774-1.216M45.369 22.384s-.575.707-1.216.772c-.641.066-1.481-.133-1.018 1.038.463 1.172 1.503-.02 1.503-.02s2.288-.54.73-1.79M47.823 21.236s-2.022-.212-1.139 1.336c0 0 .585.321 1.137.874.552.553 1.945.753 2.067-.097.122-.85-.209-1.846-2.065-2.113M68.335 32.869s-3.624-1.152-4.819 1.123c-1.196 2.276-.688 2.585-4.059 3.522-3.372.936-.82 2.96-.82 2.96s1.082.709-.212 1.47c-1.293.762-1.848 2.972-1.252 4.32.595 1.349 2.372 4.368 3.631 4.944 1.26.575 4.906 1.02 5.67.104.763-.917 1.415-1.06 2.387-.131.971.929 4.21.368 3.844 1.263-.365.895-2.069 2.86-.755 5.26 1.313 2.399 2.228 4.268.702 5.548-1.526 1.28-1.45 2.95-.08 4.41 0 0-1.076 3.082-.082 4.409.993 1.327.815 3.117.45 4.012-.366.895.021.398.021.398s-.277 1.38.464.619c.741-.762 17.01-15.081 14.278-38.368 0 0-3.924.383-4.31-.778-.385-1.16-1.667-1.581-4.253-1.164-2.587.418-1.569-.62-2.464-.985-.895-.366-1.867-.19-1.867-.19s2.645-4.672-6.474-2.746" transform="translate(-530 -4402) translate(530 4402)"/>
                <path fill="#D63333" d="M69.71 27.145s.475 1.647-.652 1.248-4.055-1.45-4.212 1.29c-.157 2.74 2.297 2.698 4.419 2.214 2.122-.485 3.196-3.015 3.196-3.015s2.132 1.096 2.962-.284c0 0 .893 2.575 2.186 2.92 0 0-1.216.22-.996 1.435.22 1.216 3.779.622 3.007-1.7-.771-2.32-4.374-1.97-2.218-3.239 2.156-1.269 3.136 2.345 3.158 3.295.02.951-.777 3.205 1.08 2.366 1.858-.838 1.462-3.579 2.047-2.153.585 1.426-.511 3.006 1.202 3.173 1.713.167 2.166.311 2.166.311s-2.941-11.396-9.256-18.54c0 0-.045.861-1.637.948-1.591.087-2.576 1.998-1.483 3.182 1.093 1.183 2.762.555 2.717 1.417-.045.862-.344 1.292-1.603.717-1.26-.576-2.066-.455-2.388.683-.321 1.138-.841 2.01-1.725 1.568-.884-.443-2.962.284-1.97 2.164" transform="translate(-530 -4402) translate(530 4402)"/>
                <path fill="#D63333" d="M66.931 20.667s-1.79.927-.345 2.398c1.447 1.471 1.836-1.789 2.588-1.523.751.266.717 1.05.21 1.293-.51.243-1.505 1.126-.522 1.425.983.299 3.36.799 3.327-.627-.032-1.425-1.115-1.581-1.115-1.581s-1.082-1.261-.296-2.332c0 0 .067-1.017-1.116-1.03-1.182-.011-1.15 1.967-1.394 2.011-.243.044-1.337-.034-1.337-.034" transform="translate(-530 -4402) translate(530 4402)"/>
            </g>
        </g>
    </g>
</svg>
