<svg xmlns="http://www.w3.org/2000/svg" xmlns:xlink="http://www.w3.org/1999/xlink" width="109" height="59" viewBox="0 0 109 59">
    <defs>
        <path id="ps6oja2lea" d="M0.507 0.02L14.7 0.02 14.7 15.051 0.507 15.051z"/>
    </defs>
    <g fill="none" fill-rule="evenodd">
        <g>
            <g>
                <g>
                    <g transform="translate(-1062 -2513) translate(-1 2250) translate(1063.5 263.6) translate(51.5 .4)">
                        <mask id="zcu8wqst0b" fill="#fff">
                            <use xlink:href="#ps6oja2lea"/>
                        </mask>
                        <path fill="#126353" d="M1.776 13.506c2.192.34 4.384.794 6.461 1.474.693.226 1.385-.114 1.616-.68l4.73-11.22c.347-.794-.115-1.587-.922-1.814C9.737.473 5.814.02 1.89.02 1.2.02.507.586.507 1.38v10.88c.115.68.692 1.246 1.269 1.246" mask="url(#zcu8wqst0b)"/>
                    </g>
                    <path fill="#126353" d="M82.913 8.99c-3.618-2.253-7.47-4.056-11.554-5.52-.7-.226-1.4.112-1.751.788l-5.019 11.83c-.233.677 0 1.353.584 1.69 1.984 1.015 3.968 2.142 5.719 3.381.583.338 1.284.338 1.75-.113L83.03 11.02c.7-.564.583-1.578-.117-2.029M98.267 22.881c-2.24-3.206-4.815-6.182-7.727-8.816-.447-.458-1.007-.916-1.567-1.373-.56-.458-1.232-.344-1.68.114L76.88 23.453c-.448.458-.56 1.374 0 1.832.448.458.896.916 1.344 1.489 1.12 1.259 2.015 2.633 2.911 4.007.336.572 1.008.801 1.568.458l15.117-6.412c.672-.343.896-1.26.448-1.946M107.486 43.854c-1.244-4.864-3.166-9.507-5.653-13.817-.339-.552-1.017-.773-1.695-.552l-15.827 6.41c-.678.222-1.017.995-.678 1.658 1.017 2.211 1.696 4.531 2.261 6.853.113.553.678.994 1.243.994h18.992c.904 0 1.47-.774 1.357-1.546" transform="translate(-1062 -2513) translate(-1 2250) translate(1063.5 263.6)"/>
                    <path fill="#A8D3C0" d="M15.763 16.818c-.587-.557-1.41-.557-1.88 0l-1.176 1.113c-2.352 2.45-4.35 5.122-5.996 7.794-.47.669-.118 1.56.705 1.782l4.468 1.782c.588.222 1.175.111 1.528-.334 1.646-1.893 3.41-3.675 5.408-5.345.353-.334.823-.668 1.176-.89.588-.446.705-1.337.118-1.894l-4.35-4.008zM47.5 11.493V1.73C47.5.955 46.831.4 46.05.4c-3.678.444-7.245 1.22-10.7 2.44-.67.222-1.004.999-.781 1.664l3.344 8.098c.223.555.78.888 1.45.777 2.229-.444 4.57-.666 6.8-.666.78 0 1.337-.554 1.337-1.22M30.427 6.194c-.347-.664-1.155-.996-1.848-.664-3.349 1.66-6.582 3.652-9.584 5.865-.577.442-.693 1.327-.115 1.88l4.965 4.758c.462.443 1.039.443 1.616.222 2.31-1.328 4.735-2.324 7.16-3.21.692-.22 1.039-.995.808-1.659l-3.002-7.192zM8.708 32.854l-3.31-1.368c-.662-.229-1.434 0-1.655.684-1.545 3.764-2.648 7.641-3.2 11.633-.22.799.441 1.597 1.214 1.597h2.317c.552 0 .993-.342 1.214-.912.993-3.422 2.427-6.615 4.082-9.695.331-.684 0-1.597-.662-1.939" transform="translate(-1062 -2513) translate(-1 2250) translate(1063.5 263.6)"/>
                    <path fill="#126353" d="M68.722 27.653c-4.78 3.533-11.152 8.434-15.704 11.967-1.024-.342-2.162-.684-3.3-.684-5.121 0-9.218 4.103-9.218 9.232s4.097 9.232 9.218 9.232c5.12 0 9.217-4.103 9.217-9.232 0-1.14-.227-2.28-.683-3.305 3.528-4.559 8.421-11.055 11.95-15.728.91-1.026-.456-2.28-1.48-1.482" transform="translate(-1062 -2513) translate(-1 2250) translate(1063.5 263.6)"/>
                </g>
            </g>
        </g>
    </g>
</svg>
