<svg xmlns="http://www.w3.org/2000/svg" width="110" height="95" viewBox="0 0 110 95">
    <g fill="none" fill-rule="evenodd">
        <g>
            <g>
                <path fill="#329E6E" d="M39.28 40.38s-.62 6.138 8.672 9.264c0 0 1.17-7.442-8.672-9.265" transform="translate(-259 -5020) translate(259 5020)"/>
                <path fill="#126353" d="M57.04 41.129c-.007-.116-.29-.154-.421-.113-2.697.364-5.505 1.279-7.293 3.445-1.017 1.232-1.607 2.789-1.707 4.38-.021.329-.03.668.01.997.019.14.314.138.41.11 3.908-1.096 8.33-3.554 8.952-7.986.038-.273.069-.557.05-.833" transform="translate(-259 -5020) translate(259 5020)"/>
                <path fill="#457861" d="M81.547 84.953s-.62 6.139 8.672 9.265c0 0 1.17-7.442-8.672-9.265" transform="translate(-259 -5020) translate(259 5020)"/>
                <path fill="#335947" d="M99.308 85.703c-.008-.117-.29-.154-.422-.114-2.697.365-5.505 1.28-7.293 3.445-1.017 1.232-1.607 2.79-1.707 4.38-.021.33-.03.668.011.998.018.14.313.137.41.11 3.907-1.097 8.33-3.555 8.951-7.987.038-.272.069-.556.05-.832" transform="translate(-259 -5020) translate(259 5020)"/>
                <path fill="#329E6E" fill-opacity=".4" d="M26.559 17.519L109.359 17.519 109.359 0.095 26.559 0.095z" transform="translate(-259 -5020) translate(259 5020)"/>
                <path stroke="#003132" stroke-width="1.8" d="M26.559 18.418L70.734 18.418M27.459 62.518L27.459 19.318M69.834 62.518L69.834 19.318M26.559 63.418L70.734 63.418" transform="translate(-259 -5020) translate(259 5020)"/>
                <text fill="#003132" font-family="Montserrat-Medium, Montserrat" font-size="9" font-weight="400" letter-spacing=".025" transform="translate(-259 -5020) translate(259 5020)">
                    <tspan x="34.957" y="11.786">AMARANTHUS</tspan>
                </text>
                <path fill="#126353" d="M8.347 49.252c.54.549.863 1.144 1.255 1.766m.558.569l-.061-.36c1.69-1.57 3.158-3.77 4.199-5.784.533-1.033 1.039-2.138 1.329-3.267.156-.61.249-1.328-.207-1.832-.446-.495-1.195-.472-1.736-.138-.78.48-1.01 1.477-1.266 2.287-.817 2.582-1.81 5.197-2.474 7.837-.194-1.067-.412-2.13-.66-3.186l-.104-.46c1.123-2.72 1.982-5.594 2.237-8.533.132-1.523.11-3.06-.11-4.575-.121-.85-.237-2.774-1.011-3.334-1.901-1.378-1.62 4.444-1.623 4.958-.025 3.266.177 6.515.748 9.73-.092.313-.186.623-.282.932-.067-3.39-.335-6.823-1.327-10.071-.502-1.643-1.198-3.242-2.15-4.677-.382-.578-1.217-2.22-2.107-1.903-.946.337-.4 2.198-.275 2.866.306 1.64.765 3.248 1.442 4.773.678 1.525 1.453 3 2.198 4.493.373.745.693 1.503.995 2.266.198 1.146.567 2.278.862 3.41-.005.033.003.062.022.085.048.188.094.375.137.563.085.378.167.758.246 1.137-.915-2.181-2.168-4.203-3.515-6.164-.698-1.016-1.388-2.222-2.394-2.971-.517-.385-1.732-1.143-2.317-.484-.55.619.044 1.629.322 2.225.592 1.275 1.256 2.529 2.124 3.639.855 1.094 1.887 1.81 3.003 2.606M8.214 92.202c.54.549.863 1.144 1.255 1.766m.558.569c-.019-.12-.04-.239-.06-.359 1.69-1.57 3.156-3.77 4.198-5.785.533-1.033 1.04-2.138 1.33-3.267.155-.609.248-1.328-.208-1.832-.446-.495-1.195-.472-1.736-.138-.779.481-1.009 1.477-1.266 2.287-.817 2.582-1.81 5.197-2.474 7.837-.194-1.067-.412-2.13-.659-3.186l-.105-.46c1.123-2.72 1.982-5.594 2.237-8.533.132-1.523.11-3.06-.109-4.575-.122-.85-.238-2.774-1.012-3.334-1.9-1.378-1.619 4.444-1.623 4.958-.025 3.266.177 6.515.748 9.731-.092.312-.186.622-.282.931-.067-3.389-.335-6.823-1.327-10.071-.502-1.643-1.198-3.242-2.149-4.677-.383-.578-1.218-2.219-2.108-1.903-.946.337-.399 2.198-.275 2.866.306 1.64.765 3.248 1.442 4.773.678 1.525 1.453 3.001 2.198 4.493.373.745.693 1.503.994 2.266.2 1.146.568 2.278.863 3.41-.005.033.003.062.022.085.048.188.094.375.136.563.086.378.168.758.247 1.137-.915-2.181-2.168-4.203-3.515-6.164-.698-1.016-1.388-2.222-2.394-2.971-.517-.385-1.732-1.143-2.317-.484-.55.619.044 1.629.322 2.225.592 1.275 1.256 2.529 2.124 3.639.855 1.094 1.887 1.81 3.002 2.606M49.639 92.202c.54.549.863 1.144 1.255 1.766m.558.569l-.061-.359c1.69-1.57 3.157-3.77 4.199-5.785.533-1.033 1.039-2.138 1.329-3.267.156-.609.249-1.328-.207-1.832-.446-.495-1.195-.472-1.736-.138-.78.481-1.01 1.477-1.266 2.287-.817 2.582-1.81 5.197-2.474 7.837-.194-1.067-.412-2.13-.66-3.186l-.104-.46c1.123-2.72 1.982-5.594 2.237-8.533.132-1.523.109-3.06-.11-4.575-.121-.85-.237-2.774-1.011-3.334-1.901-1.378-1.62 4.444-1.623 4.958-.025 3.266.177 6.515.748 9.731-.092.312-.186.622-.282.931-.067-3.389-.335-6.823-1.327-10.071-.502-1.643-1.198-3.242-2.15-4.677-.382-.578-1.217-2.219-2.107-1.903-.946.337-.4 2.198-.275 2.866.306 1.64.765 3.248 1.442 4.773.678 1.525 1.453 3.001 2.198 4.493.373.745.693 1.503.994 2.266.199 1.146.568 2.278.863 3.41-.005.033.003.062.022.085.048.188.094.375.136.563.086.378.168.758.247 1.137-.915-2.181-2.168-4.203-3.515-6.164-.698-1.016-1.388-2.222-2.394-2.971-.517-.385-1.732-1.143-2.317-.484-.55.619.044 1.629.322 2.225.592 1.275 1.256 2.529 2.124 3.639.855 1.094 1.887 1.81 3.002 2.606M89.155 49.791c.54.55.863 1.144 1.255 1.766m.558.57l-.061-.36c1.69-1.57 3.157-3.77 4.199-5.785.533-1.033 1.039-2.138 1.329-3.267.156-.609.249-1.328-.207-1.832-.446-.495-1.195-.472-1.736-.138-.78.481-1.01 1.477-1.266 2.287-.817 2.582-1.81 5.197-2.474 7.837-.194-1.067-.412-2.13-.66-3.186l-.104-.46c1.123-2.72 1.982-5.594 2.237-8.533.132-1.523.11-3.06-.11-4.575-.121-.85-.237-2.774-1.011-3.334-1.901-1.378-1.62 4.444-1.623 4.958-.025 3.266.177 6.515.748 9.731-.092.312-.186.622-.282.931-.067-3.389-.335-6.823-1.327-10.07-.502-1.644-1.198-3.243-2.15-4.678-.382-.578-1.217-2.219-2.107-1.903-.946.337-.4 2.198-.275 2.866.306 1.64.765 3.248 1.442 4.773.678 1.525 1.453 3.001 2.198 4.493.373.745.693 1.503.994 2.266.199 1.146.568 2.278.863 3.41-.005.033.003.062.022.085.048.188.094.375.136.563.086.378.168.758.247 1.137-.915-2.18-2.168-4.203-3.515-6.164-.698-1.016-1.388-2.222-2.394-2.97-.517-.386-1.732-1.144-2.317-.485-.55.62.044 1.63.322 2.225.592 1.275 1.256 2.53 2.124 3.64.855 1.093 1.887 1.81 3.002 2.605" transform="translate(-259 -5020) translate(259 5020)"/>
            </g>
        </g>
    </g>
</svg>
