<svg xmlns="http://www.w3.org/2000/svg" width="124" height="83" viewBox="0 0 124 83">
    <g fill="none" fill-rule="evenodd">
        <g>
            <g>
                <path fill="#AE9180" d="M.467 81.421L42.352 81.421 42.352 1.288.467 1.288zM81.212 41.354L123.097 41.354 123.097 1.288 81.212 1.288z" transform="translate(-658 -5125) translate(658 5125)"/>
                <path stroke="#004646" stroke-width="1.619" d="M41.756 40.397L41.756 1.536M82.236 40.397L82.236 1.536M41.756 80.877L41.756 42.016M82.236 80.877L82.236 42.016" transform="translate(-658 -5125) translate(658 5125)"/>
                <path stroke="#003132" stroke-width="1.619" d="M.467.727L41.756.727M1.276 40.397L1.276 1.536M41.756.727L82.236.727M82.236.727L123.525.727M122.715 40.397L122.715 1.536M.467 41.206L41.756 41.206M1.276 80.877L1.276 42.016M41.756 41.206L82.236 41.206M82.236 41.206L123.525 41.206M122.715 80.877L122.715 42.016M.467 81.686L41.756 81.686M41.756 81.686L82.236 81.686M82.236 81.686L123.525 81.686" transform="translate(-658 -5125) translate(658 5125)"/>
                <path fill="#329E6E" d="M42.352 41.452L81.213 41.452 81.213 1.288 42.352 1.288zM42.352 81.896L81.831 81.896 81.831 41.453 42.352 41.453zM81.831 81.668L123.716 81.668 123.716 41.225 81.831 41.225z" opacity=".4" transform="translate(-658 -5125) translate(658 5125)"/>
                <path fill="#329E6E" d="M51.974 15.3s-.687 6.817 9.631 10.29c0 0 1.3-8.267-9.63-10.29" transform="translate(-658 -5125) translate(658 5125)"/>
                <path fill="#126353" d="M71.7 16.132c-.01-.128-.323-.171-.47-.125-2.994.404-6.113 1.42-8.099 3.825-1.129 1.368-1.784 3.097-1.896 4.864-.023.366-.033.743.012 1.108.02.156.35.153.456.123 4.34-1.218 9.251-3.948 9.941-8.87.042-.303.076-.618.055-.925" transform="translate(-658 -5125) translate(658 5125)"/>
                <path fill="#329E6E" d="M93.175 58.063s-.687 6.818 9.63 10.29c0 0 1.3-8.266-9.63-10.29" transform="translate(-658 -5125) translate(658 5125)"/>
                <path fill="#126353" d="M112.9 58.896c-.01-.128-.323-.171-.47-.125-2.994.404-6.113 1.42-8.099 3.825-1.129 1.368-1.784 3.097-1.896 4.864-.023.366-.033.743.012 1.108.02.156.35.153.456.123 4.34-1.218 9.251-3.948 9.941-8.87.042-.303.076-.618.055-.925" transform="translate(-658 -5125) translate(658 5125)"/>
                <path fill="#329E6E" d="M53.1 56.124s-.687 6.819 9.63 10.29c0 0 1.3-8.266-9.63-10.29" transform="translate(-658 -5125) translate(658 5125)"/>
                <path fill="#126353" d="M72.824 56.957c-.009-.128-.322-.171-.469-.125-2.994.404-6.113 1.42-8.099 3.825-1.129 1.368-1.784 3.097-1.896 4.864-.023.366-.033.743.012 1.108.02.156.35.153.456.123 4.34-1.218 9.251-3.948 9.941-8.87.042-.303.076-.618.055-.925" transform="translate(-658 -5125) translate(658 5125)"/>
            </g>
        </g>
    </g>
</svg>
