<svg xmlns="http://www.w3.org/2000/svg" width="73" height="97" viewBox="0 0 73 97">
    <g fill="none" fill-rule="evenodd">
        <g>
            <g>
                <path fill="#D63333" d="M22.765.007l-9.108 20.7c-2.902 6.596 1.929 14 9.137 14 7.806 0 12.915-8.176 9.49-15.192L22.765.007zM30.748 61.044c-1.628-1.204-3.828-1.61-5.795-1.806-3.487-.344-7.027.078-10.44.798-.993.143-1.985.366-2.945.656-1.048.316-2.799.807-3.274 1.94-.57 1.36 1.544 2.437 2.506 2.843 1.783.752 3.79.993 5.706 1.106 4.116.243 8.536-.072 12.478-1.349.907-.294 2.478-.749 2.906-1.729.415-.949-.438-1.938-1.142-2.459" transform="translate(-1131 -4397) translate(1131 4397)"/>
                <path fill="#FFF" d="M22.355 50.243c-.66-1.972-1.852-3.842-2.974-5.605-.74-1.162-1.945-3.078-3.675-2.506-1.57.52.662 3.074 1.12 3.67 1.591 2.066 3.787 3.418 5.415 5.471-.01.04-.005.073.012.1-.055 1.177-.11 2.355-.159 3.534-.349 13.001.163.11.178 0 .152-1.128.284-2.26.4-3.395.088-.058.133-.178.047-.284 1.9-.986 3.742-2.776 5.075-4.379.7-.842 2.68-2.92 1.747-4.16-1.049-1.395-2.52.381-3.046 1.255-1.223 2.033-3.033 4.183-4.14 6.3" transform="translate(-1131 -4397) translate(1131 4397)"/>
                <path fill="#FEFEFE" d="M72.692 80.988c-6.343-2.692-12.59-5.78-18.501-9.32-1.992-1.194-3.95-2.453-5.802-3.856-1.936-1.466-3.495-3.225-5.264-4.873-3.5-3.263-7.946-6.187-12.732-7.072-.573-.106-1.137-.115-1.713-.182-1.322-.154-2.622-.663-3.878-1.085-1.75-.589-4.698-2.03-6.343-.472-.745.707-.75 1.81-.492 2.738.194.695.678 1.152 1.268 1.543 1.578 1.05 3.538 1.591 5.352 2.066.68.178 1.366.34 2.053.482.401.083.331.06.7.136 1.05.215 3.698.806 3.37 2.337-.378 1.761-3.39 1.758-4.73 1.814-2.77.117-5.57-.167-8.311-.553-2.905-.408-5.774-1.008-8.606-1.773-1.557-.42-3.19-1.105-4.825-1.134-1.202-.02-3.794.311-3.84 1.885-.014.46.263 1.103.626 1.405.371.311 1.026.424 1.474.59.714.261 1.42.582 2.12.915 2.175 1.038 4.412 1.971 6.714 2.693 1.276.4 2.584.741 3.914.903 1.072.131 2.208.163 3.232-.227.133-.05.63.093.364.193-1.188.453-2.541.394-3.781.23-2.768-.37-5.459-1.349-8.024-2.422-1.29-.539-2.57-1.114-3.817-1.75-.356.19-.63.485-.71.941-.077.445-.01.835.354 1.075 1.253.827 2.625 1.515 3.947 2.242l-.03.011c.248.128.497.255.746.38 2.21 1.112 4.468 2.147 6.786 3.013 1.268.473 2.56.903 3.882 1.195.983.218 2.075.417 3.075.183.229-.054.518.11.162.194-1.165.273-2.416.072-3.566-.18-2.736-.6-5.37-1.713-7.91-2.87-1.204-.549-2.4-1.122-3.574-1.734-.436.254-.72.658-.585 1.283.117.543.37.832.803 1.118l4.27 2.812c-.006.003-.011.006-.018.008.307.182.617.36.93.531 2.12 1.17 4.341 2.192 6.648 2.931 2.416.774 5.3 1.407 7.735.371.133-.057.596.175.405.256-1.323.562-2.805.616-4.218.468-2.832-.297-5.58-1.343-8.143-2.54-1.227-.573-2.447-1.19-3.614-1.887-.599.35-.943.921-.369 1.66.395.506 1.071.92 1.59 1.284.802.563 1.648 1.063 2.52 1.51 2.972 1.525 6.231 2.491 9.51 3.09 1.07.195 2.166.445 3.256.336l5.92-.592 8.072-.808 2.904-.29c.329-.033.766-.006 1.11-.085.017.015.036.032.059.055.152.153.355.278.524.411l1.91 1.495 5.894 4.616c3.339 2.614 6.608 5.365 10.038 7.86.047.035.093.073.14.11l.005.005.044.033c.131.103.42.037.583-.086.04-.027.073-.059.093-.095 2.436-4.457 4.871-8.915 7.308-13.372l1.048-1.92c.043-.079.032-.189-.062-.229m-27.614 1.093c-.068-.015-.073-.053 0 0" transform="translate(-1131 -4397) translate(1131 4397)"/>
            </g>
        </g>
    </g>
</svg>
