<svg xmlns="http://www.w3.org/2000/svg" width="131" height="89" viewBox="0 0 131 89">
    <g fill="none" fill-rule="evenodd">
        <g>
            <g>
                <path fill="#329E6E" d="M43.752 86.462L86.952 86.462 86.952 43.48 43.752 43.48z" opacity=".4" transform="translate(-257 -5120) translate(257 5120)"/>
                <path fill="#329E6E" d="M86.283 43.931L129.483 43.931 129.483 0.949 86.283 0.949z" opacity=".4" transform="translate(-257 -5120) translate(257 5120)"/>
                <path fill="#329E6E" d="M54.759 60.876s-.687 6.82 9.636 10.295c0 0 1.3-8.27-9.636-10.296" transform="translate(-257 -5120) translate(257 5120)"/>
                <path fill="#126353" d="M74.493 61.708c-.009-.129-.323-.17-.469-.125-2.996.404-6.116 1.421-8.103 3.827-1.13 1.37-1.785 3.1-1.897 4.867-.023.366-.034.742.012 1.107.02.157.35.154.456.124 4.341-1.219 9.256-3.95 9.945-8.874.043-.304.077-.619.056-.926" transform="translate(-257 -5120) translate(257 5120)"/>
                <path fill="#329E6E" d="M97.29 18.345s-.688 6.82 9.635 10.295c0 0 1.3-8.27-9.636-10.295" transform="translate(-257 -5120) translate(257 5120)"/>
                <path fill="#126353" d="M117.024 19.178c-.009-.13-.323-.171-.469-.125-2.996.404-6.116 1.42-8.103 3.827-1.13 1.369-1.785 3.099-1.897 4.867-.023.366-.034.742.012 1.107.02.157.349.154.456.124 4.341-1.22 9.256-3.95 9.945-8.874.043-.304.077-.62.056-.926M21 74.481c.54.55.863 1.144 1.255 1.766m.558.57l-.061-.36c1.69-1.57 3.157-3.77 4.199-5.785.533-1.033 1.039-2.138 1.329-3.267.156-.609.249-1.328-.207-1.832-.446-.495-1.195-.472-1.736-.138-.78.481-1.01 1.477-1.266 2.287-.817 2.582-1.81 5.197-2.474 7.837-.194-1.067-.412-2.13-.66-3.186l-.104-.46c1.123-2.72 1.982-5.594 2.237-8.533.132-1.523.11-3.06-.11-4.575-.121-.85-.237-2.774-1.011-3.334-1.901-1.378-1.62 4.444-1.623 4.958-.025 3.266.177 6.515.748 9.731-.092.312-.186.622-.282.931-.067-3.389-.335-6.823-1.327-10.07-.502-1.644-1.198-3.243-2.15-4.678-.382-.578-1.217-2.219-2.107-1.903-.946.337-.4 2.198-.275 2.866.306 1.64.765 3.248 1.442 4.773.678 1.525 1.452 3.001 2.198 4.493.373.745.693 1.503.994 2.266.199 1.146.568 2.278.863 3.41-.005.033.003.062.022.085.048.188.094.375.136.563.086.378.168.758.247 1.137-.915-2.18-2.168-4.203-3.515-6.164-.698-1.016-1.388-2.222-2.394-2.97-.517-.386-1.732-1.144-2.317-.485-.55.62.044 1.63.322 2.225.592 1.275 1.256 2.53 2.124 3.64.855 1.093 1.887 1.81 3.003 2.605M67.185 30.657c.54.55.863 1.144 1.255 1.766m.558.57l-.06-.36c1.69-1.57 3.156-3.77 4.198-5.785.533-1.033 1.04-2.138 1.33-3.267.155-.609.248-1.328-.208-1.832-.446-.495-1.195-.472-1.736-.138-.779.481-1.009 1.477-1.266 2.287-.817 2.582-1.81 5.197-2.474 7.837-.194-1.067-.412-2.13-.659-3.186l-.105-.46c1.123-2.72 1.982-5.594 2.237-8.533.132-1.523.11-3.06-.109-4.575-.122-.85-.238-2.774-1.012-3.334-1.9-1.378-1.619 4.444-1.623 4.958-.025 3.266.177 6.515.748 9.731-.092.312-.186.622-.282.931-.067-3.389-.335-6.823-1.327-10.07-.502-1.644-1.198-3.243-2.149-4.678-.383-.578-1.218-2.219-2.108-1.903-.946.337-.399 2.198-.275 2.866.306 1.64.765 3.248 1.442 4.773.678 1.525 1.452 3.001 2.198 4.493.373.745.693 1.503.994 2.266.2 1.146.568 2.278.863 3.41-.005.033.003.062.022.085.048.188.094.375.136.563.086.378.168.758.247 1.137-.915-2.18-2.168-4.203-3.515-6.164-.698-1.016-1.388-2.222-2.394-2.97-.517-.386-1.732-1.144-2.317-.485-.55.62.044 1.63.322 2.225.592 1.275 1.256 2.53 2.124 3.64.855 1.093 1.887 1.81 3.003 2.605M21 30.657c.54.55.863 1.144 1.255 1.766m.558.57l-.061-.36c1.69-1.57 3.157-3.77 4.199-5.785.533-1.033 1.039-2.138 1.329-3.267.156-.609.249-1.328-.207-1.832-.446-.495-1.195-.472-1.736-.138-.78.481-1.01 1.477-1.266 2.287-.817 2.582-1.81 5.197-2.474 7.837-.194-1.067-.412-2.13-.66-3.186l-.104-.46c1.123-2.72 1.982-5.594 2.237-8.533.132-1.523.11-3.06-.11-4.575-.121-.85-.237-2.774-1.011-3.334-1.901-1.378-1.62 4.444-1.623 4.958-.025 3.266.177 6.515.748 9.731-.092.312-.186.622-.282.931-.067-3.389-.335-6.823-1.327-10.07-.502-1.644-1.198-3.243-2.15-4.678-.382-.578-1.217-2.219-2.107-1.903-.946.337-.4 2.198-.275 2.866.306 1.64.765 3.248 1.442 4.773.678 1.525 1.452 3.001 2.198 4.493.373.745.693 1.503.994 2.266.199 1.146.568 2.278.863 3.41-.005.033.003.062.022.085.048.188.094.375.136.563.086.378.168.758.247 1.137-.915-2.18-2.168-4.203-3.515-6.164-.698-1.016-1.388-2.222-2.394-2.97-.517-.386-1.732-1.144-2.317-.485-.55.62.044 1.63.322 2.225.592 1.275 1.256 2.53 2.124 3.64.855 1.093 1.887 1.81 3.003 2.605M110.828 75.618c.54.549.863 1.144 1.255 1.766m.558.569l-.061-.36c1.69-1.57 3.157-3.77 4.199-5.784.533-1.033 1.039-2.138 1.329-3.267.156-.61.249-1.328-.207-1.832-.446-.495-1.195-.472-1.736-.138-.78.48-1.01 1.477-1.266 2.287-.817 2.582-1.81 5.197-2.474 7.837-.194-1.067-.412-2.13-.66-3.186l-.104-.46c1.123-2.72 1.982-5.594 2.237-8.533.132-1.523.11-3.06-.11-4.575-.121-.85-.237-2.774-1.011-3.334-1.901-1.378-1.62 4.444-1.623 4.958-.025 3.266.177 6.515.748 9.73-.092.313-.186.623-.282.932-.067-3.39-.335-6.823-1.327-10.071-.502-1.643-1.198-3.242-2.15-4.677-.382-.578-1.217-2.22-2.107-1.903-.946.337-.4 2.198-.275 2.866.306 1.64.765 3.248 1.442 4.773.678 1.525 1.452 3 2.198 4.493.373.745.693 1.503.994 2.266.199 1.146.568 2.278.863 3.41-.005.033.003.062.022.085.048.188.094.375.136.563.086.378.168.758.247 1.137-.915-2.181-2.168-4.203-3.515-6.164-.698-1.016-1.388-2.222-2.394-2.971-.517-.385-1.732-1.143-2.317-.484-.55.619.044 1.629.322 2.225.592 1.275 1.256 2.529 2.124 3.639.855 1.094 1.887 1.81 3.003 2.606" transform="translate(-257 -5120) translate(257 5120)"/>
                <path stroke="#003132" stroke-width="1.712" d="M.304 1.805L44.811 1.805M1.16 43.743L1.16 2.66M43.955 43.743L43.955 2.66M.304 44.599L44.811 44.599M85.893 44.599L130.399 44.599M86.749 86.538L86.749 45.455M129.544 86.538L129.544 45.455M85.893 87.394L130.399 87.394M44.811 1.805L86.75 1.805M86.749 1.805L130.399 1.805M86.749 43.743L86.749 2.66M129.544 43.743L129.544 2.66M1.16 86.538L1.16 45.455M43.099 44.599L87.605 44.599M43.955 86.538L43.955 45.455M.304 87.394L43.954 87.394M43.955 87.394L85.894 87.394" transform="translate(-257 -5120) translate(257 5120)"/>
                <path fill="#126353" d="M21 30.657c.54.55.863 1.144 1.255 1.766m.558.57l-.061-.36c1.69-1.57 3.157-3.77 4.199-5.785.533-1.033 1.039-2.138 1.329-3.267.156-.609.249-1.328-.207-1.832-.446-.495-1.195-.472-1.736-.138-.78.481-1.01 1.477-1.266 2.287-.817 2.582-1.81 5.197-2.474 7.837-.194-1.067-.412-2.13-.66-3.186l-.104-.46c1.123-2.72 1.982-5.594 2.237-8.533.132-1.523.11-3.06-.11-4.575-.121-.85-.237-2.774-1.011-3.334-1.901-1.378-1.62 4.444-1.623 4.958-.025 3.266.177 6.515.748 9.731-.092.312-.186.622-.282.931-.067-3.389-.335-6.823-1.327-10.07-.502-1.644-1.198-3.243-2.15-4.678-.382-.578-1.217-2.219-2.107-1.903-.946.337-.4 2.198-.275 2.866.306 1.64.765 3.248 1.442 4.773.678 1.525 1.452 3.001 2.198 4.493.373.745.693 1.503.994 2.266.199 1.146.568 2.278.863 3.41-.005.033.003.062.022.085.048.188.094.375.136.563.086.378.168.758.247 1.137-.915-2.18-2.168-4.203-3.515-6.164-.698-1.016-1.388-2.222-2.394-2.97-.517-.386-1.732-1.144-2.317-.485-.55.62.044 1.63.322 2.225.592 1.275 1.256 2.53 2.124 3.64.855 1.093 1.887 1.81 3.003 2.605" transform="translate(-257 -5120) translate(257 5120)"/>
            </g>
        </g>
    </g>
</svg>
