<svg xmlns="http://www.w3.org/2000/svg" xmlns:xlink="http://www.w3.org/1999/xlink" width="88" height="62" viewBox="0 0 88 62">
    <defs>
        <path id="mq9ngpys2a" d="M0 0.001L88 0.001 88 50.494 0 50.494z"/>
    </defs>
    <g fill="none" fill-rule="evenodd">
        <g>
            <g>
                <g>
                    <g transform="translate(-1068 -2965) translate(-1 2250) translate(1069 715)">
                        <mask id="j67g7bj40b" fill="#fff">
                            <use xlink:href="#mq9ngpys2a"/>
                        </mask>
                        <path fill="#126353" d="M87.915 40.586c-.034-3.332.358-6.51-.3-9.677-.376-1.805-1.32-3.21-2.813-4.29-3.139-2.268-6.677-3.719-10.47-4.43-5.061-.948-10.164-1.696-15.262-2.447-.868-.128-1.065-.374-1.057-1.181.042-4.104.02-8.21.02-12.315V5.241l-.998-.161V.097h-2.24c0 1.394-.026 2.743.01 4.092.016.581-.057 1.001-.846.945v13.948l-2.562-.308c-.115-1.272-.155-2.536-.36-3.774-.412-2.501-.82-5.01-1.402-7.475-.886-3.752-3.306-5.895-7.254-6.577C36.81-.013 31.2-.132 25.592.108c-3.247.139-5.858 1.844-7.167 4.82-.725 1.65-.979 3.53-1.238 5.335-.563 3.915-1.014 7.846-1.456 11.776-.073.65-.292.937-.902 1.204-6.13 2.682-10.915 6.872-14.414 12.47-.125.201-.22.42-.32.635-.036.075-.044.163-.095.367 1.145 0 2.246.036 3.34-.026.261-.015.544-.324.746-.556 7.733-8.874 20.827-10.502 30.452-3.652 5.872 4.18 8.94 9.93 9.28 17.044.014.29.035.579.058.969l18.716-.267c.07-.23.16-.443.2-.665 1.17-6.372 6.579-11.119 13.178-11.622 3.874-.296 7.49.544 10.951 2.18.268.127.537.252.994.466m-41.165-8.32c-1.082.05-2.133.156-3.178.119-.445-.016-.997-.22-1.301-.527-1.837-1.855-3.792-3.553-6.094-4.842-3.65-2.045-7.66-2.975-11.764-3.602-1.266-.193-2.538-.355-3.858-.539.374-5.23.965-10.32 1.877-15.386.336-1.866 1.41-2.743 3.037-3.29.426-.143.87-.262 1.314-.32 4.95-.634 9.803.032 14.648.994 1.622.323 2.628 1.222 3.345 2.557.321.598.694 1.215.812 1.864.423 2.346.973 4.7 1.063 7.067.19 5.044.124 10.097.16 15.146 0 .23-.036.46-.06.76" mask="url(#j67g7bj40b)"/>
                    </g>
                    <path fill="#A8D3C0" d="M21.495 62c8.528.022 15.493-6.925 15.505-15.464.012-8.552-6.898-15.507-15.436-15.536C12.994 30.971 5.991 37.951 6 46.512 6.01 55.048 12.942 61.978 21.495 62M88 51.45C87.97 45.639 83.236 40.96 77.427 41c-5.788.042-10.465 4.803-10.427 10.618.038 5.786 4.788 10.422 10.637 10.382C83.405 61.96 88.03 57.252 88 51.45" transform="translate(-1068 -2965) translate(-1 2250) translate(1069 715)"/>
                </g>
            </g>
        </g>
    </g>
</svg>
