<svg xmlns="http://www.w3.org/2000/svg" width="26" height="21" viewBox="0 0 26 21">
    <g fill="none" fill-rule="evenodd">
        <g fill="#000" fill-rule="nonzero">
            <g>
                <path d="M26 2.486c-.967.422-1.997.701-3.071.837 1.105-.656 1.948-1.687 2.345-2.929-1.03.61-2.168 1.042-3.38 1.283C20.915.64 19.52 0 18 0c-2.95 0-5.327 2.381-5.327 5.3 0 .42.036.824.124 1.208C8.366 6.294 4.444 4.182 1.81.966c-.46.793-.73 1.701-.73 2.678 0 1.835.951 3.462 2.368 4.404-.856-.016-1.696-.263-2.408-.653v.058c0 2.575 1.848 4.714 4.27 5.207-.433.118-.906.174-1.397.174-.341 0-.686-.02-1.01-.09.692 2.098 2.651 3.64 4.982 3.69-1.814 1.411-4.117 2.26-6.61 2.26-.436 0-.856-.019-1.275-.072C2.361 20.136 5.16 21 8.177 21c9.808 0 15.171-8.077 15.171-15.078 0-.234-.008-.46-.02-.685 1.058-.746 1.947-1.678 2.672-2.75z" transform="translate(-1172 -6307) translate(1 6136.001) translate(1171 170.999)"/>
            </g>
        </g>
    </g>
</svg>
