<svg xmlns="http://www.w3.org/2000/svg" xmlns:xlink="http://www.w3.org/1999/xlink" width="228" height="44" viewBox="0 0 228 44">
    <defs>
        <path id="yfxwat2qwa" d="M0.791 0.848L45.614 0.848 45.614 22 0.791 22z"/>
    </defs>
    <g fill="none" fill-rule="evenodd">
        <g>
            <g>
                <g fill="#FEFEFE">
                    <path d="M20.787 7.214c-1.755-1.629-4.303-2.59-7.019-2.59-5.013 0-8.648 3.551-8.648 8.982 0 5.515 3.76 9.108 8.648 9.108 1.546 0 2.674-.167 3.677-.585v-7.52h4.261v9.985c-1.963 1.212-4.97 1.838-8.02 1.838-7.73 0-12.953-5.055-12.953-12.826C.733 6.002 6.206.78 13.56.78c2.8 0 5.222.67 7.228 1.88v4.554zM30.9 26.015h-4.137V9.053c2.005-1.128 4.596-1.838 7.228-1.838 1.295 0 2.297.125 3.551.459v4.01c-1.17-.46-2.465-.584-3.55-.584-1.255 0-2.257.25-3.093.585v14.33zM43.434 17.7v.085c.25 3.3 3.092 5.097 5.974 5.097 2.549 0 4.387-.585 6.225-1.797v3.635c-1.671 1.17-4.136 1.713-6.517 1.713-5.766 0-9.693-3.677-9.693-9.526 0-5.891 3.844-9.818 8.94-9.818 5.39 0 7.939 3.468 7.939 8.523V17.7H43.434zm8.982-2.673c-.083-2.882-1.504-4.47-4.178-4.47-2.381 0-4.136 1.67-4.68 4.47h8.858zM63.572 17.7v.085c.251 3.3 3.092 5.097 5.975 5.097 2.548 0 4.386-.585 6.224-1.797v3.635c-1.67 1.17-4.136 1.713-6.517 1.713-5.766 0-9.693-3.677-9.693-9.526 0-5.891 3.844-9.818 8.941-9.818 5.39 0 7.938 3.468 7.938 8.523V17.7H63.572zm8.982-2.673c-.083-2.882-1.503-4.47-4.177-4.47-2.382 0-4.136 1.67-4.68 4.47h8.857zM80.87 8.677c2.59-1.003 5.765-1.587 8.48-1.587 4.722 0 7.73 1.796 7.73 7.018v11.907h-4.095V14.483c0-2.674-1.67-3.633-3.968-3.633-1.463 0-2.925.207-4.011.543v14.622H80.87V8.677zM105.186 17.7v.085c.251 3.3 3.092 5.097 5.975 5.097 2.548 0 4.386-.585 6.224-1.797v3.635c-1.67 1.17-4.135 1.713-6.517 1.713-5.765 0-9.692-3.677-9.692-9.526 0-5.891 3.843-9.818 8.94-9.818 5.39 0 7.938 3.468 7.938 8.523V17.7h-12.868zm8.983-2.673c-.084-2.882-1.504-4.47-4.178-4.47-2.38 0-4.136 1.67-4.679 4.47h8.857z" transform="translate(-47 -35) translate(47 35) translate(60 .274)"/>
                </g>
                <path fill="#FEFEFE" d="M189.503 22.361L194.684 7.78 198.945 7.78 188.918 33.808 184.866 33.808 187.456 27.124 179.811 7.78 184.239 7.78zM203.913 17.974v.084c.251 3.3 3.092 5.097 5.975 5.097 2.548 0 4.386-.585 6.224-1.797v3.635c-1.671 1.17-4.135 1.713-6.517 1.713-5.765 0-9.692-3.677-9.692-9.526 0-5.89 3.843-9.818 8.94-9.818 5.389 0 7.938 3.468 7.938 8.523v2.09h-12.868zm8.983-2.674c-.084-2.882-1.504-4.47-4.178-4.47-2.381 0-4.136 1.671-4.679 4.47h8.857zM64.288 32.676L64.288 34.512 67.316 34.512 67.316 42.501 69.383 42.501 69.383 34.512 72.41 34.512 72.41 32.676zM75.586 32.676L75.586 42.501 81.954 42.501 81.954 40.665 77.653 40.665 77.653 38.466 81.508 38.466 81.508 36.663 77.653 36.663 77.653 34.512 81.855 34.512 81.855 32.676zM92.871 35.422c-.628-.629-1.555-1.026-2.68-1.026-1.769 0-2.928 1.307-2.928 3.193 0 1.935 1.258 3.192 3.011 3.192 1.125 0 1.935-.33 2.762-1.009v2.167c-.909.546-1.852.728-2.845.728-3.076 0-5.078-2.084-5.078-5.078 0-3.01 2.084-5.078 5.078-5.078.993 0 1.886.198 2.68.661v2.25zM103.176 32.676L103.176 36.663 98.693 36.663 98.693 32.676 96.592 32.676 96.592 42.501 98.693 42.501 98.693 38.515 103.176 38.515 103.176 42.501 105.26 42.501 105.26 32.676zM115.863 32.676L115.863 39.293 111.43 32.676 109.313 32.676 109.313 42.501 111.331 42.501 111.331 35.968 115.895 42.501 117.881 42.501 117.881 32.676zM126.499 32.511c2.845 0 5.11 2.084 5.11 5.078s-2.265 5.078-5.11 5.078-5.111-2.084-5.111-5.078 2.266-5.078 5.11-5.078m0 1.885c-1.686 0-2.96 1.258-2.96 3.193s1.274 3.192 2.96 3.192c1.688 0 2.962-1.257 2.962-3.192 0-1.935-1.274-3.193-2.961-3.193M135.117 32.676L135.117 42.501 141.071 42.501 141.071 40.665 137.218 40.665 137.218 32.676z" transform="translate(-47 -35) translate(47 35)"/>
                <g fill="#FEFEFE">
                    <path d="M5.648.237c2.845 0 5.11 2.085 5.11 5.079 0 2.994-2.265 5.077-5.11 5.077S.537 8.31.537 5.315 2.803.237 5.647.237m0 1.885c-1.686 0-2.96 1.259-2.96 3.194 0 1.934 1.274 3.192 2.96 3.192 1.688 0 2.96-1.257 2.96-3.192 0-1.935-1.272-3.193-2.96-3.193M21.857 3.165c-.695-.645-1.737-1.059-2.845-1.059-1.819 0-3.06 1.274-3.06 3.209 0 2.002 1.307 3.275 3.06 3.275.447 0 .877-.049 1.158-.165V5.679h2.051v3.97c-.777.496-2.084.745-3.242.745-3.126 0-5.177-1.952-5.177-5.079 0-2.993 2.117-5.077 5.095-5.077 1.157 0 2.166.248 2.96.744v2.183z" transform="translate(-47 -35) translate(47 35) translate(143 32.274)"/>
                </g>
                <path fill="#FEFEFE" d="M174.452 32.676L172.202 36.861 169.903 32.676 167.603 32.676 171.126 38.846 171.126 42.501 173.21 42.501 173.21 38.846 176.768 32.676zM219.999 11.728L219.129 11.728 219.129 8.367 217.856 8.367 217.856 7.594 221.272 7.594 221.272 8.367 219.999 8.367zM224.32 11.728L223.437 8.84 223.005 11.728 222.142 11.728 222.748 7.594 223.819 7.594 224.744 10.622 225.642 7.594 226.714 7.594 227.326 11.728 226.449 11.728 226.018 8.84 225.127 11.728z" transform="translate(-47 -35) translate(47 35)"/>
                <g>
                    <path fill="#FEFEFE" d="M0 21.878h12.321c3.022-5.75 9.044-9.677 15.99-9.677 6.945 0 12.962 3.928 15.983 9.677h.529V5.769C40.11 2.585 34.427.726 28.311.726 14.913.726 3.616 9.654 0 21.878" transform="translate(-47 -35) translate(47 35) translate(0 .274)"/>
                    <g transform="translate(-47 -35) translate(47 35) translate(0 .274) translate(11 21)">
                        <mask id="vokguc015b" fill="#fff">
                            <use xlink:href="#yfxwat2qwa"/>
                        </mask>
                        <path fill="#FEFEFE" d="M33.293.848c-3.02 5.75-9.042 9.677-15.989 9.677-6.945 0-12.963-3.929-15.984-9.677H.791v16.11C5.505 20.14 11.188 22 17.304 22 30.702 22 42 13.074 45.614.848h-12.32z" mask="url(#vokguc015b)"/>
                    </g>
                </g>
            </g>
        </g>
    </g>
</svg>
