<?xml version="1.0" encoding="utf-8"?>
<!-- Generator: Adobe Illustrator 25.2.1, SVG Export Plug-In . SVG Version: 6.00 Build 0)  -->
<svg version="1.1" id="Layer_1" xmlns="http://www.w3.org/2000/svg" xmlns:xlink="http://www.w3.org/1999/xlink" x="0px" y="0px"
	 viewBox="0 0 182.36 33.91" style="enable-background:new 0 0 182.36 33.91;" xml:space="preserve">
<style type="text/css">
	.st0{clip-path:url(#SVGID_2_);fill:#234141;}
	.st1{fill:#234141;}
	.st2{clip-path:url(#SVGID_4_);fill:#234141;}
	.st3{clip-path:url(#SVGID_6_);fill:#234141;}
	.st4{clip-path:url(#SVGID_8_);fill:#234141;}
	.st5{clip-path:url(#SVGID_10_);fill:#234141;}
	.st6{clip-path:url(#SVGID_12_);fill:url(#SVGID_13_);}
	.st7{clip-path:url(#SVGID_15_);fill:url(#SVGID_16_);}
</style>
<g>
	<g>
		<defs>
			<rect id="SVGID_1_" width="182.36" height="33.91"/>
		</defs>
		<clipPath id="SVGID_2_">
			<use xlink:href="#SVGID_1_"  style="overflow:visible;"/>
		</clipPath>
		<path class="st0" d="M64.81,5.2c-1.41-1.31-3.45-2.08-5.63-2.08c-4.02,0-6.94,2.85-6.94,7.21c0,4.42,3.02,7.31,6.94,7.31
			c1.24,0,2.15-0.13,2.95-0.47v-6.03h3.42v8.01c-1.58,0.97-3.99,1.47-6.43,1.47c-6.2,0-10.39-4.06-10.39-10.29
			c0-6.1,4.39-10.29,10.29-10.29c2.25,0,4.19,0.54,5.8,1.51V5.2z"/>
		<path class="st0" d="M72.92,20.29H69.6V6.68c1.61-0.91,3.69-1.47,5.8-1.47c1.04,0,1.84,0.1,2.85,0.37v3.22
			c-0.94-0.37-1.98-0.47-2.85-0.47c-1,0-1.81,0.2-2.48,0.47V20.29z"/>
		<path class="st0" d="M90.18,11.47c-0.07-2.31-1.21-3.59-3.35-3.59c-1.91,0-3.32,1.34-3.75,3.59H90.18z M82.97,13.62v0.07
			c0.2,2.65,2.48,4.09,4.79,4.09c2.04,0,3.52-0.47,4.99-1.44v2.92c-1.34,0.94-3.32,1.37-5.23,1.37c-4.62,0-7.78-2.95-7.78-7.64
			c0-4.73,3.08-7.88,7.17-7.88c4.32,0,6.37,2.78,6.37,6.84v1.68H82.97z"/>
		<path class="st0" d="M106.33,11.47c-0.07-2.31-1.21-3.59-3.35-3.59c-1.91,0-3.32,1.34-3.75,3.59H106.33z M99.13,13.62v0.07
			c0.2,2.65,2.48,4.09,4.79,4.09c2.04,0,3.52-0.47,4.99-1.44v2.92c-1.34,0.94-3.32,1.37-5.23,1.37c-4.62,0-7.78-2.95-7.78-7.64
			c0-4.73,3.08-7.88,7.17-7.88c4.32,0,6.37,2.78,6.37,6.84v1.68H99.13z"/>
		<path class="st0" d="M113,6.38c2.08-0.8,4.62-1.27,6.8-1.27c3.79,0,6.2,1.44,6.2,5.63v9.55h-3.28v-9.25
			c0-2.14-1.34-2.92-3.18-2.92c-1.17,0-2.35,0.17-3.22,0.44v11.73H113V6.38z"/>
		<path class="st0" d="M139.71,11.47c-0.07-2.31-1.21-3.59-3.35-3.59c-1.91,0-3.32,1.34-3.75,3.59H139.71z M132.51,13.62v0.07
			c0.2,2.65,2.48,4.09,4.79,4.09c2.04,0,3.52-0.47,4.99-1.44v2.92c-1.34,0.94-3.32,1.37-5.23,1.37c-4.62,0-7.78-2.95-7.78-7.64
			c0-4.73,3.08-7.88,7.17-7.88c4.32,0,6.37,2.78,6.37,6.84v1.68H132.51z"/>
	</g>
	<polygon class="st1" points="152.01,17.14 156.17,5.44 159.59,5.44 151.55,26.32 148.29,26.32 150.37,20.96 144.24,5.44 
		147.79,5.44 	"/>
	<g>
		<defs>
			<rect id="SVGID_3_" width="182.36" height="33.91"/>
		</defs>
		<clipPath id="SVGID_4_">
			<use xlink:href="#SVGID_3_"  style="overflow:visible;"/>
		</clipPath>
		<path class="st2" d="M170.78,11.47c-0.07-2.31-1.21-3.59-3.35-3.59c-1.91,0-3.32,1.34-3.75,3.59H170.78z M163.57,13.62v0.07
			c0.2,2.65,2.48,4.09,4.79,4.09c2.04,0,3.52-0.47,4.99-1.44v2.92c-1.34,0.94-3.32,1.37-5.23,1.37c-4.62,0-7.78-2.95-7.78-7.64
			c0-4.73,3.08-7.88,7.17-7.88c4.32,0,6.37,2.78,6.37,6.84v1.68H163.57z"/>
	</g>
	<polygon class="st1" points="51.57,25.41 51.57,26.88 54,26.88 54,33.29 55.66,33.29 55.66,26.88 58.09,26.88 58.09,25.41 	"/>
	<polygon class="st1" points="60.63,25.41 60.63,33.29 65.74,33.29 65.74,31.82 62.29,31.82 62.29,30.05 65.38,30.05 65.38,28.61 
		62.29,28.61 62.29,26.88 65.66,26.88 65.66,25.41 	"/>
	<g>
		<defs>
			<rect id="SVGID_5_" width="182.36" height="33.91"/>
		</defs>
		<clipPath id="SVGID_6_">
			<use xlink:href="#SVGID_5_"  style="overflow:visible;"/>
		</clipPath>
		<path class="st3" d="M74.5,27.61c-0.5-0.5-1.25-0.82-2.15-0.82c-1.42,0-2.35,1.05-2.35,2.56c0,1.55,1.01,2.56,2.42,2.56
			c0.9,0,1.55-0.26,2.22-0.81v1.74c-0.73,0.44-1.49,0.58-2.28,0.58c-2.47,0-4.07-1.67-4.07-4.07c0-2.41,1.67-4.07,4.07-4.07
			c0.8,0,1.51,0.16,2.15,0.53V27.61z"/>
	</g>
	<polygon class="st1" points="82.77,25.41 82.77,28.61 79.17,28.61 79.17,25.41 77.48,25.41 77.48,33.29 79.17,33.29 79.17,30.09 
		82.77,30.09 82.77,33.29 84.44,33.29 84.44,25.41 	"/>
	<polygon class="st1" points="92.94,25.41 92.94,30.72 89.39,25.41 87.69,25.41 87.69,33.29 89.31,33.29 89.31,28.05 92.97,33.29 
		94.56,33.29 94.56,25.41 	"/>
	<g>
		<defs>
			<rect id="SVGID_7_" width="182.36" height="33.91"/>
		</defs>
		<clipPath id="SVGID_8_">
			<use xlink:href="#SVGID_7_"  style="overflow:visible;"/>
		</clipPath>
		<path class="st4" d="M101.47,26.79c-1.35,0-2.38,1.01-2.38,2.56c0,1.55,1.02,2.56,2.38,2.56c1.35,0,2.38-1.01,2.38-2.56
			C103.85,27.8,102.83,26.79,101.47,26.79 M101.47,25.28c2.28,0,4.1,1.67,4.1,4.07c0,2.4-1.82,4.07-4.1,4.07
			c-2.28,0-4.1-1.67-4.1-4.07C97.37,26.95,99.19,25.28,101.47,25.28"/>
	</g>
	<polygon class="st1" points="108.39,25.41 108.39,33.29 113.16,33.29 113.16,31.82 110.07,31.82 110.07,25.41 	"/>
	<g>
		<defs>
			<rect id="SVGID_9_" width="182.36" height="33.91"/>
		</defs>
		<clipPath id="SVGID_10_">
			<use xlink:href="#SVGID_9_"  style="overflow:visible;"/>
		</clipPath>
		<path class="st5" d="M119.24,26.79c-1.35,0-2.38,1.01-2.38,2.56c0,1.55,1.02,2.56,2.38,2.56c1.35,0,2.38-1.01,2.38-2.56
			C121.62,27.8,120.59,26.79,119.24,26.79 M119.24,25.28c2.28,0,4.1,1.67,4.1,4.07c0,2.4-1.82,4.07-4.1,4.07
			c-2.28,0-4.1-1.67-4.1-4.07C115.14,26.95,116.96,25.28,119.24,25.28"/>
		<path class="st5" d="M132.24,27.63c-0.56-0.52-1.39-0.85-2.28-0.85c-1.46,0-2.45,1.02-2.45,2.57c0,1.61,1.05,2.63,2.45,2.63
			c0.36,0,0.7-0.04,0.93-0.13v-2.2h1.65v3.18c-0.62,0.4-1.67,0.6-2.6,0.6c-2.51,0-4.15-1.57-4.15-4.07c0-2.4,1.7-4.07,4.09-4.07
			c0.93,0,1.74,0.2,2.38,0.6V27.63z"/>
	</g>
	<polygon class="st1" points="139.94,25.41 138.14,28.77 136.29,25.41 134.45,25.41 137.27,30.36 137.27,33.29 138.95,33.29 
		138.95,30.36 141.8,25.41 	"/>
	<polygon class="st1" points="176.48,8.61 175.78,8.61 175.78,5.91 174.76,5.91 174.76,5.29 177.5,5.29 177.5,5.91 176.48,5.91 	"/>
	<polygon class="st1" points="181.01,5.29 180.29,7.72 179.54,5.29 178.68,5.29 178.2,8.61 178.89,8.61 179.24,6.29 179.94,8.61 
		180.59,8.61 181.31,6.29 181.65,8.61 182.36,8.61 181.86,5.29 	"/>
	<g>
		<defs>
			<path id="SVGID_11_" d="M22.71,0C11.96,0,2.9,7.16,0,16.97h9.88c2.42-4.61,7.26-7.76,12.83-7.76c5.57,0,10.4,3.15,12.82,7.76
				h0.42V4.05C32.17,1.49,27.62,0,22.71,0z"/>
		</defs>
		<clipPath id="SVGID_12_">
			<use xlink:href="#SVGID_11_"  style="overflow:visible;"/>
		</clipPath>
		
			<linearGradient id="SVGID_13_" gradientUnits="userSpaceOnUse" x1="-119.6576" y1="845.0175" x2="-118.6576" y2="845.0175" gradientTransform="matrix(35.9559 0 0 -35.9559 4302.3916 30391.8066)">
			<stop  offset="0" style="stop-color:#2CA77B"/>
			<stop  offset="0.0182" style="stop-color:#2CA77B"/>
			<stop  offset="0.3151" style="stop-color:#207E5D"/>
			<stop  offset="0.7776" style="stop-color:#0E4433"/>
			<stop  offset="0.9995" style="stop-color:#072D22"/>
			<stop  offset="1" style="stop-color:#072D22"/>
		</linearGradient>
		<rect class="st6" width="35.96" height="16.97"/>
	</g>
	<g>
		<defs>
			<path id="SVGID_14_" d="M35.53,16.94c-2.42,4.61-7.25,7.76-12.83,7.76c-5.57,0-10.4-3.15-12.82-7.76H9.46v12.92
				c3.78,2.55,8.34,4.05,13.25,4.05c10.75,0,19.81-7.16,22.71-16.97H35.53z"/>
		</defs>
		<clipPath id="SVGID_15_">
			<use xlink:href="#SVGID_14_"  style="overflow:visible;"/>
		</clipPath>
		
			<linearGradient id="SVGID_16_" gradientUnits="userSpaceOnUse" x1="-119.6576" y1="845.0175" x2="-118.6576" y2="845.0175" gradientTransform="matrix(35.9559 0 0 -35.9559 4311.8564 30408.7871)">
			<stop  offset="0" style="stop-color:#3B9F7B"/>
			<stop  offset="4.954550e-03" style="stop-color:#3B9F7B"/>
			<stop  offset="0.2584" style="stop-color:#2C7F62"/>
			<stop  offset="0.7595" style="stop-color:#114434"/>
			<stop  offset="0.9995" style="stop-color:#072D22"/>
			<stop  offset="1" style="stop-color:#072D22"/>
		</linearGradient>
		<rect x="9.46" y="16.94" class="st7" width="35.96" height="16.97"/>
	</g>
</g>
</svg>
