<svg xmlns="http://www.w3.org/2000/svg" xmlns:xlink="http://www.w3.org/1999/xlink" viewBox="0 0 548 141"><defs><style>.cls-1{fill:none;}.cls-2{fill:#fff;}.cls-3{clip-path:url(#clip-path);}.cls-4{fill:#643622;}.cls-5{fill:#40752e;}.cls-6{fill:#3a1e16;}.cls-7{clip-path:url(#clip-path-2);}.cls-8{fill:#46a039;}.cls-9{clip-path:url(#clip-path-3);}.cls-10{fill:#5fa932;}.cls-11{clip-path:url(#clip-path-4);}</style><clipPath id="clip-path"><rect class="cls-1" x="25.86" y="94.35" width="64.14" height="20.73"/></clipPath><clipPath id="clip-path-2"><rect class="cls-1" x="50.08" y="25.92" width="24.48" height="37.93"/></clipPath><clipPath id="clip-path-3"><rect class="cls-1" x="67.38" y="56.92" width="39.32" height="21.72"/></clipPath><clipPath id="clip-path-4"><rect class="cls-1" x="12.55" y="56.06" width="39.75" height="23.37"/></clipPath></defs><g id="Layer_2" data-name="Layer 2"><g id="Layer_1-2" data-name="Layer 1"><rect class="cls-2" width="548" height="141" rx="29"/><g class="cls-3"><path class="cls-4" d="M26,111.76s6-2.39,7.59-3.83c0,0,1.49-3.17,2.9-3.27,0,0,1.88-1.19,1.59-1.76s1.13-2.28,3.66-2.28,2.78-3,5.81-2.84a2.22,2.22,0,0,1,.37,0s2.54.2,3.37-1.15c0,0,5.15-4.62,14-.47a12.8,12.8,0,0,0,4.4,2.13s6.56.52,6.56,2c0,0,3.37.51,1.5,2.3a4.38,4.38,0,0,0,2.9,2.8,2.51,2.51,0,0,1,1.41,1.9,2.41,2.41,0,0,0,1.79.67,3.77,3.77,0,0,1,.84,1.56s4.13,3.27,5.25,3.23c0,0-20.22,3.76-28.65,1.63a4.67,4.67,0,0,1-.5-.14c-8.15-2.49-9.32.1-18.11.62,0,0-13.75-1.11-16.65-3.15"/></g><path class="cls-5" d="M56.19,62.41s4.33,39-7.95,44c0,0,10.3-3.6,15.89,1.62,0,0-8.45-38.32-3.21-44.21,0,0,2.57-16-4.73-1.41"/><path class="cls-4" d="M71.21,107.8c.18-.7-.72-2.77-2.31-2.77s-1.75-3.6-3.64-3.44a.71.71,0,0,0-.24,0,2,2,0,0,1-2.12-1.38s-3.23-5.6-8.77-.56c0,0-1.53,2.2-2.77,2.58,0,0-4.12.63-4.12,2.46a27.75,27.75,0,0,1-4.39,3.32"/><path class="cls-6" d="M71.21,107.8a1.57,1.57,0,0,0-.07-.57,2.81,2.81,0,0,0-.22-.53,3.3,3.3,0,0,0-.7-.92,2,2,0,0,0-1-.5,1.15,1.15,0,0,0-.26,0h-.33a1.34,1.34,0,0,1-.64-.32,4.19,4.19,0,0,1-.78-1c-.21-.35-.4-.69-.62-1a2.77,2.77,0,0,0-.7-.77,1,1,0,0,0-.84-.13h0a.32.32,0,0,1-.13,0h-.31a1.9,1.9,0,0,1-.41,0,2.39,2.39,0,0,1-.78-.3,2.06,2.06,0,0,1-.62-.59,2.9,2.9,0,0,1-.37-.72l0,.08c0-.07-.11-.15-.16-.23a2.67,2.67,0,0,0-.18-.23c-.12-.16-.26-.3-.4-.46a6.47,6.47,0,0,0-.9-.76,4,4,0,0,0-2.17-.72,4.76,4.76,0,0,0-2.26.54,9.53,9.53,0,0,0-2,1.41l.07-.07c-.2.27-.4.53-.61.78s-.44.49-.67.72a8.21,8.21,0,0,1-.77.67,3.15,3.15,0,0,1-1,.51H51.4c-.4.06-.8.14-1.22.23a12.2,12.2,0,0,0-1.17.37,3.86,3.86,0,0,0-1,.57,1.26,1.26,0,0,0-.55.92v.1l-.06,0c-.7.6-1.42,1.18-2.16,1.72-.37.27-.76.54-1.14.78a11.13,11.13,0,0,1-1.21.67,9.9,9.9,0,0,0,1.14-.77,12.58,12.58,0,0,0,1.07-.86l1-.9c.34-.3.68-.61,1-.93l-.07.14a1.57,1.57,0,0,1,.17-.73,2,2,0,0,1,.44-.55,4.32,4.32,0,0,1,1.13-.74,8,8,0,0,1,1.23-.48,13,13,0,0,1,1.3-.31h-.06a2.71,2.71,0,0,0,.7-.42c.23-.2.45-.4.66-.62s.41-.45.6-.69.38-.49.55-.74l0,0,0,0A9.17,9.17,0,0,1,56,97.79a5.67,5.67,0,0,1,2.71-.67,5.17,5.17,0,0,1,1.41.26,5.33,5.33,0,0,1,1.26.64,6.61,6.61,0,0,1,1.06.91,5.89,5.89,0,0,1,.44.53l.2.27.2.3,0,0,0,0a1.56,1.56,0,0,0,.6.88,1.74,1.74,0,0,0,.49.2.9.9,0,0,0,.28,0h.23a1.93,1.93,0,0,1,.76,0,1.75,1.75,0,0,1,.68.3,3.67,3.67,0,0,1,.85,1c.2.36.37.73.55,1.07a4.18,4.18,0,0,0,.6.92.88.88,0,0,0,.4.24h.11l.15,0,.32,0a2.31,2.31,0,0,1,1.07.69,3,3,0,0,1,.63,1,3.86,3.86,0,0,1,.17.58,1.33,1.33,0,0,1,0,.63"/><g class="cls-7"><path class="cls-8" d="M57.16,63.26s-14.87-5.92.5-20.95c0,0,11.48-10.16,11.38-16.39,0,0,4.44,16.64,4.69,21.53,0,0,2.51,14.2-15.21,16.19l-1.36-.38"/></g><path class="cls-5" d="M57.16,63.26a20.1,20.1,0,0,1,0-4q.11-1,.27-2c.13-.66.27-1.32.45-2a18.38,18.38,0,0,1,1.5-3.82,15.88,15.88,0,0,1,1.07-1.76,15.26,15.26,0,0,1,1.3-1.61c.23-.24.48-.49.74-.72s.26-.24.38-.35l.37-.32a18.1,18.1,0,0,0,1.39-1.38,14.12,14.12,0,0,0,2.16-3.21A15.59,15.59,0,0,0,68,38.33c.26-1.29.39-2.63.66-3.94-.08,1.34-.07,2.67-.21,4a13.69,13.69,0,0,1-1,4,13.24,13.24,0,0,1-2.16,3.51,18.18,18.18,0,0,1-1.44,1.47l-.74.67-.69.69a15.89,15.89,0,0,0-2.27,3.15,21.27,21.27,0,0,0-1.58,3.59c-.22.63-.39,1.26-.56,1.9s-.32,1.28-.42,1.94a39.64,39.64,0,0,0-.47,4"/><path class="cls-5" d="M57.63,74.64s8.78-9.55,16.22-9.47c0,0-13.72,4.72-14.61,11.68,0,0-2,2.68-1.61-2.21"/><g class="cls-9"><path class="cls-10" d="M67.4,66S69,50.09,87.74,60.6c0,0,13,8.13,19,6.3,0,0-14.77,8.9-19.43,10.51,0,0-13,6.37-19.86-10V66"/></g><path class="cls-5" d="M67.41,67.39a16,16,0,0,1,1.55-1c.53-.28,1.08-.54,1.63-.8A27,27,0,0,1,74,64.38a25.19,25.19,0,0,1,3.57-.77,23.71,23.71,0,0,1,3.68-.27,22.66,22.66,0,0,1,3.67.33l.9.18.46.09.43.13c.31.08.59.16.89.26l.87.3c.28.09.57.22.85.34l.42.18.21.09.2.11.83.41.2.11.19.11.4.23a20.73,20.73,0,0,1,2.94,2.12L94,67.88c-.26-.15-.51-.31-.79-.45s-.53-.27-.79-.43a.85.85,0,0,1-.19-.1L92,66.8l-.41-.19a23.07,23.07,0,0,0-3.33-1.27l-.85-.25c-.28-.08-.58-.13-.86-.2l-.42-.1-.44-.08c-.3,0-.58-.11-.88-.15l-.88-.11c-.29,0-.59,0-.88-.08l-.44,0-.43,0-.89,0a30.55,30.55,0,0,0-7,.79c-1.17.27-2.31.59-3.44,1l-.85.29-.84.31-.83.34-.85.4"/><path class="cls-5" d="M49.86,70.39s7.41,2.88,7.77,12.43c0,0-4.16-11.36-8.68-11.45,0,0-12.28-6.73.91-1"/><g class="cls-11"><path class="cls-10" d="M51.42,71S47.87,86.59,30.57,73.8c0,0-11.85-9.7-18-8.64,0,0,15.79-7,20.61-8,0,0,22-3.26,17.89,15L51.42,71"/></g><path class="cls-5" d="M49.86,70.39A15.1,15.1,0,0,0,48.47,69,17.39,17.39,0,0,0,47,67.8l-.38-.29-.4-.27a8.57,8.57,0,0,0-.81-.52c-.27-.17-.54-.33-.83-.49l-.85-.46a24.21,24.21,0,0,0-3.55-1.44,26.65,26.65,0,0,0-3.73-.9l-.94-.16-1-.09-.48,0-.48,0-1-.06c-.65,0-1.29,0-1.94,0l-.95,0-1,.07a53.22,53.22,0,0,0-7.69,1.21,32.5,32.5,0,0,1,7.61-2l1-.12,1-.07.49,0h.5l1,0a26.24,26.24,0,0,1,4,.34,23.37,23.37,0,0,1,3.87,1A22.23,22.23,0,0,1,44,65.12a20,20,0,0,1,3.23,2.31,18.23,18.23,0,0,1,1.39,1.39,14.52,14.52,0,0,1,1.2,1.57"/><path class="cls-4" d="M145.55,109.16a32.55,32.55,0,0,1-12.89-2.44,21.21,21.21,0,0,1-9.06-7.06,18.5,18.5,0,0,1-3.43-10.89h14.7a9.56,9.56,0,0,0,3,6.67,10.59,10.59,0,0,0,7.39,2.44c3.21,0,5.72-.76,7.55-2.3a7.5,7.5,0,0,0,2.74-6,6.93,6.93,0,0,0-1.87-5A13.13,13.13,0,0,0,149,81.48,77.79,77.79,0,0,0,141.34,79,80.11,80.11,0,0,1,130.5,75.1a19,19,0,0,1-7.16-5.77q-3-3.87-3-10.34a18.52,18.52,0,0,1,3-10.58,19.36,19.36,0,0,1,8.52-6.91,30.86,30.86,0,0,1,12.54-2.41q10.58,0,17.19,5.15T169,58.6h-15.1a7.91,7.91,0,0,0-3-5.84,11.26,11.26,0,0,0-7.39-2.3,9.56,9.56,0,0,0-6.44,2.07,7.4,7.4,0,0,0-2.39,6,6.21,6.21,0,0,0,1.81,4.58A14.17,14.17,0,0,0,141,66q2.7,1.13,7.6,2.6a80.49,80.49,0,0,1,10.88,3.91,19.48,19.48,0,0,1,7.25,5.89q3,3.92,3,10.29a19.43,19.43,0,0,1-2.85,10.19,20.15,20.15,0,0,1-8.33,7.51A28.56,28.56,0,0,1,145.55,109.16Z"/><path class="cls-4" d="M205.71,109.34a28.62,28.62,0,0,1-14.11-3.47A25.15,25.15,0,0,1,181.75,96a29.52,29.52,0,0,1-3.56-14.68,29.06,29.06,0,0,1,3.66-14.71,25.58,25.58,0,0,1,10.05-9.85,30.79,30.79,0,0,1,28.4,0,25.74,25.74,0,0,1,10.06,9.85A29,29,0,0,1,234,81.34,28.22,28.22,0,0,1,230.26,96a26.06,26.06,0,0,1-10.19,9.85A29.64,29.64,0,0,1,205.71,109.34Zm0-11.94a14.08,14.08,0,0,0,7-1.82A13.11,13.11,0,0,0,218,90.15a18.18,18.18,0,0,0,2-8.81q0-7.75-4.07-11.92a13.41,13.41,0,0,0-9.94-4.17A13.16,13.16,0,0,0,196,69.42q-4,4.17-3.95,11.92T196,93.24A12.81,12.81,0,0,0,205.71,97.4Z"/><path class="cls-4" d="M251.08,47.72a8.41,8.41,0,0,1-6-2.3,8.06,8.06,0,0,1,0-11.46,9.05,9.05,0,0,1,12.06,0,8.06,8.06,0,0,1,0,11.46A8.38,8.38,0,0,1,251.08,47.72Zm6.77,6.46v54.29H244.13V54.18Z"/><path class="cls-4" d="M285.09,36v72.51H271.37V36Z"/><path class="cls-4" d="M322.23,109.16a32.52,32.52,0,0,1-12.89-2.44,21.24,21.24,0,0,1-9.07-7.06,18.57,18.57,0,0,1-3.43-10.89h14.71a9.48,9.48,0,0,0,3,6.67,10.58,10.58,0,0,0,7.39,2.44c3.2,0,5.71-.76,7.54-2.3a7.47,7.47,0,0,0,2.74-6,7,7,0,0,0-1.86-5,13.18,13.18,0,0,0-4.65-3.08A77.79,77.79,0,0,0,318,79a79.91,79.91,0,0,1-10.83-3.87A19,19,0,0,1,300,69.33q-3-3.87-3-10.34a18.45,18.45,0,0,1,3-10.58,19.33,19.33,0,0,1,8.51-6.91,30.93,30.93,0,0,1,12.54-2.41q10.59,0,17.19,5.15t7.32,14.36H330.56a7.88,7.88,0,0,0-3-5.84,11.23,11.23,0,0,0-7.38-2.3,9.57,9.57,0,0,0-6.45,2.07,7.4,7.4,0,0,0-2.39,6,6.18,6.18,0,0,0,1.82,4.58A14.06,14.06,0,0,0,317.67,66q2.68,1.13,7.59,2.6a81.2,81.2,0,0,1,10.89,3.91,19.64,19.64,0,0,1,7.25,5.89q3,3.92,3,10.29a19.34,19.34,0,0,1-2.85,10.19,20.15,20.15,0,0,1-8.33,7.51A28.51,28.51,0,0,1,322.23,109.16Z"/><path class="cls-4" d="M354.77,81.34a30.35,30.35,0,0,1,3.43-14.75,24.46,24.46,0,0,1,9.5-9.81,27.55,27.55,0,0,1,13.9-3.47q10.09,0,16.71,5a24.53,24.53,0,0,1,8.88,14.15h-14.8a10.87,10.87,0,0,0-4-5.52,11.44,11.44,0,0,0-6.9-2,11.3,11.3,0,0,0-9.32,4.28q-3.44,4.27-3.43,12.11t3.43,12a11.32,11.32,0,0,0,9.32,4.26q8.33,0,10.88-7.44h14.8a25.1,25.1,0,0,1-8.93,14q-6.64,5.17-16.66,5.17a27.45,27.45,0,0,1-13.9-3.47,24.44,24.44,0,0,1-9.5-9.78A30.46,30.46,0,0,1,354.77,81.34Z"/><path class="cls-4" d="M413.76,81.13A31.45,31.45,0,0,1,417,66.54a24.21,24.21,0,0,1,8.9-9.8,23.75,23.75,0,0,1,12.61-3.43,22,22,0,0,1,10.63,2.46,21.61,21.61,0,0,1,7.3,6.15V54.18h13.81v54.29H456.47v-7.94a20.52,20.52,0,0,1-7.3,6.33,22.35,22.35,0,0,1-10.72,2.48,23.13,23.13,0,0,1-12.52-3.52,24.68,24.68,0,0,1-8.9-9.94A32,32,0,0,1,413.76,81.13Zm42.71.21a17.66,17.66,0,0,0-2-8.58,13.83,13.83,0,0,0-5.29-5.48,14,14,0,0,0-19.47,5.38,17.09,17.09,0,0,0-2,8.47,17.71,17.71,0,0,0,2,8.58,14.66,14.66,0,0,0,5.3,5.64,13.43,13.43,0,0,0,7,2,14.12,14.12,0,0,0,7.16-1.91,13.76,13.76,0,0,0,5.29-5.48A17.71,17.71,0,0,0,456.47,81.34Z"/><path class="cls-4" d="M513.79,53.4q9.72,0,15.67,6.12t6,17.1v31.85H521.73v-30q0-6.46-3.24-9.95a11.46,11.46,0,0,0-8.82-3.47,11.77,11.77,0,0,0-9,3.47q-3.27,3.48-3.27,9.95v30H483.72V54.18h13.71V61a18.84,18.84,0,0,1,7-5.52A21.59,21.59,0,0,1,513.79,53.4Z"/></g></g></svg>