<svg xmlns="http://www.w3.org/2000/svg" width="13" height="23" viewBox="0 0 13 23">
    <g fill="none" fill-rule="evenodd">
        <g fill="#000" fill-rule="nonzero">
            <g>
                <path d="M12.51.005L9.392 0C5.89 0 3.625 2.222 3.625 5.66v2.61H.49c-.27 0-.49.21-.49.47v3.78c0 .26.22.47.49.47h3.135v9.541c0 .26.22.469.49.469h4.091c.271 0 .49-.21.49-.469V12.99h3.666c.271 0 .49-.21.49-.47l.002-3.78c0-.125-.052-.244-.144-.332-.091-.088-.217-.138-.347-.138H8.696V6.058c0-1.064.265-1.603 1.713-1.603l2.101-.001c.27 0 .49-.21.49-.47V.475c0-.259-.22-.469-.49-.47z" transform="translate(-1141 -6305) translate(1 6136.001) translate(1140 168.999)"/>
            </g>
        </g>
    </g>
</svg>
