<svg width="24" height="18" viewBox="0 0 24 18" fill="none" xmlns="http://www.w3.org/2000/svg">
<g clip-path="url(#clip0_9_11)">
<path d="M12 9L0.0117188 2.92969V1.5C0.0117188 1.07812 0.160011 0.722656 0.456597 0.433594C0.753182 0.144531 1.1044 0 1.51026 0H22.4898C22.8956 0 23.2468 0.144531 23.5434 0.433594C23.84 0.722656 23.9883 1.07812 23.9883 1.5V2.92969L12 9ZM11.2507 10.5H12.7493L23.9883 4.66406V16.5C23.9883 16.9063 23.84 17.2578 23.5434 17.5547C23.2468 17.8516 22.8956 18 22.4898 18H1.51026C1.1044 18 0.753182 17.8516 0.456597 17.5547C0.160011 17.2578 0.0117188 16.9063 0.0117188 16.5V4.66406L11.2507 10.5Z" fill="white"/>
</g>
<defs>
<clipPath id="clip0_9_11">
<rect width="24" height="18" fill="white"/>
</clipPath>
</defs>
</svg>
