<svg xmlns="http://www.w3.org/2000/svg" width="23" height="23" viewBox="0 0 23 23">
    <g fill="none" fill-rule="evenodd">
        <g fill="#000" fill-rule="nonzero">
            <g>
                <path d="M19.63 0H3.37C1.511 0 0 1.512 0 3.37v16.26C0 21.489 1.512 23 3.37 23h16.26c1.858 0 3.37-1.512 3.37-3.37V3.37C23 1.511 21.488 0 19.63 0zM8.13 18.238H5.437V8.805H8.13v9.433zm0-10.781H5.437V4.762H8.13v2.695zm9.434 10.781H14.87v-5.39c0-.743-.605-1.348-1.348-1.348-.742 0-1.347.605-1.347 1.348v5.39H9.479V8.805h2.695v.508c.706-.22 1.165-.508 2.021-.508 1.828.002 3.37 1.641 3.37 3.58v5.853z" transform="translate(-1218 -6305) translate(1 6136.001) translate(1217 168.999)"/>
            </g>
        </g>
    </g>
</svg>
