<?xml version="1.0" encoding="UTF-8"?>
<svg width="12px" height="16px" viewBox="0 0 12 16" version="1.1" xmlns="http://www.w3.org/2000/svg" xmlns:xlink="http://www.w3.org/1999/xlink">
    <title>icon/ location</title>
    <g id="Page-1" stroke="none" stroke-width="1" fill="none" fill-rule="evenodd">
        <g id="request-a-demo--copy-2" transform="translate(-253.000000, -762.000000)" fill="#000000">
            <g id="Fill-23" transform="translate(253.000000, 761.563932)">
                <path d="M11.555,3.7889 C11.279,3.1389 10.885,2.5479 10.373,2.0359 C9.861,1.5229 9.289,1.1289 8.619,0.8529 C7.95,0.5579 7.221,0.4199 6.472,0.4199 C5.723,0.4199 5.014,0.5579 4.325,0.8529 C3.674,1.1289 3.083,1.5229 2.571,2.0359 C2.059,2.5479 1.665,3.1189 1.389,3.7889 C1.094,4.4589 0.956,5.1879 0.956,5.9359 C0.956,6.6459 1.231,7.5719 1.783,8.7729 C2.217,9.6799 2.808,10.7239 3.537,11.9059 C4.797,13.8759 6.058,15.5509 6.078,15.5699 C6.157,15.6889 6.295,15.7479 6.452,15.7479 C6.61,15.7479 6.728,15.6889 6.827,15.5699 C6.846,15.5509 8.107,13.8959 9.368,11.9059 C10.117,10.7439 10.708,9.6799 11.122,8.7729 C11.673,7.5909 11.949,6.6649 11.949,5.9359 C11.988,5.1879 11.851,4.4789 11.555,3.7889 M8.954,8.3989 C8.304,9.0489 7.418,9.4239 6.492,9.4239 C5.566,9.4239 4.679,9.0689 4.029,8.3989 C3.379,7.7489 3.005,6.8619 3.005,5.9359 C3.005,5.0099 3.359,4.1239 4.029,3.4739 C4.679,2.8239 5.566,2.4489 6.492,2.4489 C7.418,2.4489 8.304,2.8039 8.954,3.4739 C9.605,4.1239 9.979,5.0099 9.979,5.9359 C9.979,6.8619 9.624,7.7489 8.954,8.3989"></path>
            </g>
        </g>
    </g>
</svg>