<svg width="30" height="22" viewBox="0 0 30 22" fill="none" xmlns="http://www.w3.org/2000/svg">
<g clip-path="url(#clip0_9_11)">
<path d="M15 11L0.0146484 3.58073V1.83333C0.0146484 1.31771 0.200014 0.883247 0.570746 0.529948C0.941478 0.176649 1.3805 0 1.88782 0H28.1122C28.6195 0 29.0586 0.176649 29.4293 0.529948C29.8 0.883247 29.9854 1.31771 29.9854 1.83333V3.58073L15 11ZM14.0634 12.8333H15.9366L29.9854 5.70052V20.1667C29.9854 20.6632 29.8 21.0929 29.4293 21.4557C29.0586 21.8186 28.6195 22 28.1122 22H1.88782C1.3805 22 0.941478 21.8186 0.570746 21.4557C0.200014 21.0929 0.0146484 20.6632 0.0146484 20.1667V5.70052L14.0634 12.8333Z" fill="white"/>
</g>
<defs>
<clipPath id="clip0_9_11">
<rect width="30" height="22" fill="white"/>
</clipPath>
</defs>
</svg>
