<svg xmlns="http://www.w3.org/2000/svg" xmlns:xlink="http://www.w3.org/1999/xlink" width="228px" height="43px" viewBox="0 0 228 43"><title>logo/ white</title><defs><polygon id="path-1" points="0.7914 0.8481 45.6144 0.8481 45.6144 22 0.7914 22"></polygon></defs><g id="Symbols" stroke="none" stroke-width="1" fill="none" fill-rule="evenodd"><g id="logo" transform="translate(0.000000, -1.000000)"><g id="Group-13" transform="translate(60.000000, 0.273600)" fill="#FEFEFE"><path d="M20.7872,7.2142 C19.0322,5.5852 16.4842,4.6242 13.7682,4.6242 C8.7552,4.6242 5.1202,8.1752 5.1202,13.6062 C5.1202,19.1212 8.8802,22.7142 13.7682,22.7142 C15.3142,22.7142 16.4422,22.5472 17.4452,22.1292 L17.4452,14.6092 L21.7062,14.6092 L21.7062,24.5942 C19.7432,25.8062 16.7352,26.4322 13.6852,26.4322 C5.9562,26.4322 0.7332,21.3772 0.7332,13.6062 C0.7332,6.0022 6.2062,0.7802 13.5592,0.7802 C16.3582,0.7802 18.7812,1.4492 20.7872,2.6602 L20.7872,7.2142 Z" id="Fill-1"></path><path d="M30.8994,26.0147 L26.7634,26.0147 L26.7634,9.0527 C28.7684,7.9247 31.3594,7.2147 33.9914,7.2147 C35.2864,7.2147 36.2884,7.3397 37.5424,7.6737 L37.5424,11.6847 C36.3724,11.2247 35.0774,11.0997 33.9914,11.0997 C32.7374,11.0997 31.7354,11.3507 30.8994,11.6847 L30.8994,26.0147 Z" id="Fill-3"></path><path d="M43.4337,17.7007 L43.4337,17.7847 C43.6847,21.0847 46.5257,22.8817 49.4077,22.8817 C51.9567,22.8817 53.7947,22.2967 55.6327,21.0847 L55.6327,24.7197 C53.9617,25.8897 51.4967,26.4327 49.1157,26.4327 C43.3497,26.4327 39.4227,22.7557 39.4227,16.9067 C39.4227,11.0157 43.2667,7.0887 48.3637,7.0887 C53.7527,7.0887 56.3017,10.5567 56.3017,15.6117 L56.3017,17.7007 L43.4337,17.7007 Z M52.4157,15.0267 C52.3327,12.1447 50.9117,10.5567 48.2377,10.5567 C45.8567,10.5567 44.1017,12.2277 43.5587,15.0267 L52.4157,15.0267 Z" id="Fill-5"></path><path d="M63.5724,17.7007 L63.5724,17.7847 C63.8234,21.0847 66.6644,22.8817 69.5474,22.8817 C72.0954,22.8817 73.9334,22.2967 75.7714,21.0847 L75.7714,24.7197 C74.1004,25.8897 71.6354,26.4327 69.2544,26.4327 C63.4884,26.4327 59.5614,22.7557 59.5614,16.9067 C59.5614,11.0157 63.4054,7.0887 68.5024,7.0887 C73.8914,7.0887 76.4404,10.5567 76.4404,15.6117 L76.4404,17.7007 L63.5724,17.7007 Z M72.5544,15.0267 C72.4714,12.1447 71.0514,10.5567 68.3774,10.5567 C65.9954,10.5567 64.2414,12.2277 63.6974,15.0267 L72.5544,15.0267 Z" id="Fill-7"></path><path d="M80.8699,8.6765 C83.4599,7.6735 86.6349,7.0895 89.3509,7.0895 C94.0719,7.0895 97.0799,8.8855 97.0799,14.1075 L97.0799,26.0145 L92.9849,26.0145 L92.9849,14.4835 C92.9849,11.8095 91.3149,10.8495 89.0169,10.8495 C87.5539,10.8495 86.0919,11.0575 85.0059,11.3925 L85.0059,26.0145 L80.8699,26.0145 L80.8699,8.6765 Z" id="Fill-9"></path><path d="M105.1861,17.7007 L105.1861,17.7847 C105.4371,21.0847 108.2781,22.8817 111.1611,22.8817 C113.7091,22.8817 115.5471,22.2967 117.3851,21.0847 L117.3851,24.7197 C115.7141,25.8897 113.2501,26.4327 110.8681,26.4327 C105.1031,26.4327 101.1761,22.7557 101.1761,16.9067 C101.1761,11.0157 105.0191,7.0887 110.1161,7.0887 C115.5051,7.0887 118.0541,10.5567 118.0541,15.6117 L118.0541,17.7007 L105.1861,17.7007 Z M114.1691,15.0267 C114.0851,12.1447 112.6651,10.5567 109.9911,10.5567 C107.6101,10.5567 105.8551,12.2277 105.3121,15.0267 L114.1691,15.0267 Z" id="Fill-11"></path></g><polygon id="Fill-14" fill="#FEFEFE" points="189.5029 22.3612 194.6839 7.7802 198.9449 7.7802 188.9179 33.8082 184.8659 33.8082 187.4559 27.1242 179.8109 7.7802 184.2389 7.7802"></polygon><path d="M203.913,17.9743 L203.913,18.0583 C204.164,21.3583 207.005,23.1553 209.888,23.1553 C212.436,23.1553 214.274,22.5703 216.112,21.3583 L216.112,24.9933 C214.441,26.1633 211.977,26.7063 209.595,26.7063 C203.83,26.7063 199.903,23.0293 199.903,17.1803 C199.903,11.2893 203.746,7.3623 208.843,7.3623 C214.232,7.3623 216.781,10.8303 216.781,15.8853 L216.781,17.9743 L203.913,17.9743 Z M212.896,15.3003 C212.812,12.4183 211.392,10.8303 208.718,10.8303 C206.337,10.8303 204.582,12.5013 204.039,15.3003 L212.896,15.3003 Z" id="Fill-15" fill="#FEFEFE"></path><polygon id="Fill-17" fill="#FEFEFE" points="64.2879 32.6761 64.2879 34.5121 67.3159 34.5121 67.3159 42.5011 69.3829 42.5011 69.3829 34.5121 72.4099 34.5121 72.4099 32.6761"></polygon><polygon id="Fill-18" fill="#FEFEFE" points="75.5856 32.6761 75.5856 42.5011 81.9536 42.5011 81.9536 40.6651 77.6526 40.6651 77.6526 38.4661 81.5076 38.4661 81.5076 36.6631 77.6526 36.6631 77.6526 34.5121 81.8546 34.5121 81.8546 32.6761"></polygon><path d="M92.871,35.4223 C92.243,34.7933 91.316,34.3963 90.191,34.3963 C88.422,34.3963 87.263,35.7033 87.263,37.5893 C87.263,39.5243 88.521,40.7813 90.274,40.7813 C91.399,40.7813 92.209,40.4503 93.036,39.7723 L93.036,41.9393 C92.127,42.4853 91.184,42.6673 90.191,42.6673 C87.115,42.6673 85.113,40.5833 85.113,37.5893 C85.113,34.5783 87.197,32.5113 90.191,32.5113 C91.184,32.5113 92.077,32.7093 92.871,33.1723 L92.871,35.4223 Z" id="Fill-19" fill="#FEFEFE"></path><polygon id="Fill-21" fill="#FEFEFE" points="103.176 32.6761 103.176 36.6631 98.693 36.6631 98.693 32.6761 96.592 32.6761 96.592 42.5011 98.693 42.5011 98.693 38.5151 103.176 38.5151 103.176 42.5011 105.26 42.5011 105.26 32.6761"></polygon><polygon id="Fill-22" fill="#FEFEFE" points="115.8633 32.6761 115.8633 39.2931 111.4303 32.6761 109.3133 32.6761 109.3133 42.5011 111.3313 42.5011 111.3313 35.9681 115.8953 42.5011 117.8813 42.5011 117.8813 32.6761"></polygon><path d="M126.4988,32.5111 C129.3438,32.5111 131.6098,34.5951 131.6098,37.5891 C131.6098,40.5831 129.3438,42.6671 126.4988,42.6671 C123.6538,42.6671 121.3878,40.5831 121.3878,37.5891 C121.3878,34.5951 123.6538,32.5111 126.4988,32.5111 M126.4988,34.3961 C124.8118,34.3961 123.5378,35.6541 123.5378,37.5891 C123.5378,39.5241 124.8118,40.7811 126.4988,40.7811 C128.1858,40.7811 129.4598,39.5241 129.4598,37.5891 C129.4598,35.6541 128.1858,34.3961 126.4988,34.3961" id="Fill-23" fill="#FEFEFE"></path><polygon id="Fill-25" fill="#FEFEFE" points="135.117 32.6761 135.117 42.5011 141.071 42.5011 141.071 40.6651 137.218 40.6651 137.218 32.6761"></polygon><g id="Group-30" transform="translate(143.000000, 32.273600)" fill="#FEFEFE"><path d="M5.6476,0.2375 C8.4926,0.2375 10.7586,2.3215 10.7586,5.3155 C10.7586,8.3095 8.4926,10.3935 5.6476,10.3935 C2.8026,10.3935 0.5366,8.3095 0.5366,5.3155 C0.5366,2.3215 2.8026,0.2375 5.6476,0.2375 M5.6476,2.1225 C3.9606,2.1225 2.6866,3.3805 2.6866,5.3155 C2.6866,7.2505 3.9606,8.5075 5.6476,8.5075 C7.3346,8.5075 8.6076,7.2505 8.6076,5.3155 C8.6076,3.3805 7.3346,2.1225 5.6476,2.1225" id="Fill-26"></path><path d="M21.8573,3.165 C21.1623,2.52 20.1203,2.106 19.0123,2.106 C17.1933,2.106 15.9523,3.38 15.9523,5.315 C15.9523,7.317 17.2593,8.59 19.0123,8.59 C19.4593,8.59 19.8893,8.541 20.1703,8.425 L20.1703,5.679 L22.2213,5.679 L22.2213,9.649 C21.4443,10.145 20.1373,10.394 18.9793,10.394 C15.8533,10.394 13.8023,8.442 13.8023,5.315 C13.8023,2.322 15.9193,0.238 18.8973,0.238 C20.0543,0.238 21.0633,0.486 21.8573,0.982 L21.8573,3.165 Z" id="Fill-28"></path></g><polygon id="Fill-31" fill="#FEFEFE" points="174.4515 32.6761 172.2015 36.8611 169.9025 32.6761 167.6035 32.6761 171.1265 38.8461 171.1265 42.5011 173.2105 42.5011 173.2105 38.8461 176.7675 32.6761"></polygon><polygon id="Fill-32" fill="#FEFEFE" points="219.9992 11.7277 219.1292 11.7277 219.1292 8.3667 217.8562 8.3667 217.8562 7.5937 221.2722 7.5937 221.2722 8.3667 219.9992 8.3667"></polygon><polygon id="Fill-33" fill="#FEFEFE" points="224.3204 11.7277 223.4374 8.8397 223.0054 11.7277 222.1424 11.7277 222.7484 7.5937 223.8194 7.5937 224.7444 10.6217 225.6424 7.5937 226.7144 7.5937 227.3264 11.7277 226.4494 11.7277 226.0184 8.8397 225.1274 11.7277"></polygon><g id="Group-39" transform="translate(0.000000, 0.273600)"><path d="M0,21.878 L12.321,21.878 C15.343,16.128 21.365,12.201 28.311,12.201 C35.256,12.201 41.273,16.129 44.294,21.878 L44.823,21.878 L44.823,5.769 C40.11,2.585 34.427,0.726 28.311,0.726 C14.913,0.726 3.616,9.654 0,21.878" id="Fill-34" fill="#FEFEFE"></path><g id="Group-38" transform="translate(11.000000, 21.000000)"><mask id="mask-2" fill="white"><use xlink:href="#path-1"></use></mask><g id="Clip-37"></g><path d="M33.2934,0.8481 C30.2724,6.5981 24.2514,10.5251 17.3044,10.5251 C10.3594,10.5251 4.3414,6.5961 1.3204,0.8481 L0.7914,0.8481 L0.7914,16.9571 C5.5054,20.1411 11.1884,22.0001 17.3044,22.0001 C30.7024,22.0001 41.9994,13.0741 45.6144,0.8481 L33.2934,0.8481 Z" id="Fill-36" fill="#FEFEFE" mask="url(#mask-2)"></path></g></g></g></g></svg>